<svg id="Design" xmlns="http://www.w3.org/2000/svg" xmlns:xlink="http://www.w3.org/1999/xlink" width="990" height="730" viewBox="0 0 990 730">
  <defs>
    <linearGradient id="linear-gradient" x1="208.57" y1="121.01" x2="264.16" y2="121.01" gradientUnits="userSpaceOnUse">
      <stop offset="0.31" stop-color="#f5f5f5"/>
      <stop offset="0.7" stop-color="#b8a9a9"/>
    </linearGradient>
  </defs>
  <g>
    <path d="M781.4,565.43l72-41.43c11.8-6.79,11.81-17.91,0-24.72L474.78,280.68l-95.42,52.63Z"/>
    <g>
      <path d="M778.69,565.43l-15.41-8.9c-2.16-1.25-2.16-5.3,0-9s5.67-5.77,7.83-4.52l15.42,8.9Z" fill="#f5f5f5"/>
      <path d="M778.69,565.43l-15.41-8.9c-2.16-1.25-2.16-5.3,0-9s5.67-5.77,7.83-4.52l15.42,8.9Z" fill="none" stroke="#000" stroke-linecap="round" stroke-miterlimit="10"/>
      <ellipse cx="782.61" cy="558.64" rx="7.83" ry="4.52" transform="translate(-92.49 957.08) rotate(-60)" fill="#318510" stroke="#000" stroke-linecap="round" stroke-miterlimit="10"/>
    </g>
    <g>
      <path d="M390.42,341.26,375,332.36c-2.17-1.25-2.17-5.3,0-9.05s5.67-5.77,7.83-4.52l15.41,8.9Z" fill="#f5f5f5"/>
      <path d="M390.42,341.26,375,332.36c-2.17-1.25-2.17-5.3,0-9.05s5.67-5.77,7.83-4.52l15.41,8.9Z" fill="none" stroke="#000" stroke-linecap="round" stroke-miterlimit="10"/>
      <ellipse cx="394.34" cy="334.47" rx="7.83" ry="4.52" transform="matrix(0.5, -0.87, 0.87, 0.5, -92.49, 508.74)" fill="#318510" stroke="#000" stroke-linecap="round" stroke-miterlimit="10"/>
    </g>
    <g>
      <path d="M219.58,179.85c7.87,4.55,20.76,4.55,28.64,0l71.36-41.2c6.14-3.54,6.14-9.34,0-12.89L247,83.86c-7.88-4.54-20.77-4.54-28.65,0l-68.2,39.38c-7.87,4.55-7.87,12,0,16.54Z" fill="none" stroke="#000" stroke-miterlimit="10"/>
      <path d="M225.31,116.28c8.66-5,22.83-5,31.48,0l4.2,2.43c8.66,5,8.66,13.18,0,18.18L246.92,145c-8.66,5-22.83,5-31.49,0l-4.2-2.42c-8.66-5-8.66-13.18,0-18.18Z" fill="#f5f5f5" stroke="#000" stroke-miterlimit="10"/>
      <g>
        <path d="M208.57,101.35v32.09c0,2.83,1.86,5.66,5.58,7.81l3.6,2.08c7.43,4.29,19.6,4.29,27,0l13.8-8c3.72-2.14,5.58-5,5.58-7.8h0V95.47Z" stroke="#000" stroke-miterlimit="10" fill="url(#linear-gradient)"/>
        <path d="M228,85.58c7.43-4.29,19.59-4.29,27,0l3.6,2.08C266,92,266,99,258.58,103.27l-13.8,8c-7.43,4.29-19.6,4.29-27,0l-3.6-2.08c-7.44-4.3-7.44-11.32,0-15.61Z" fill="#f5f5f5" stroke="#000" stroke-miterlimit="10"/>
      </g>
      <line x1="245.88" y1="124.86" x2="245.67" y2="124.98" fill="#f5f5f5" stroke="#000" stroke-miterlimit="10"/>
      <g>
        <path d="M169.49,125.15l-3.11-1.77a3.37,3.37,0,0,0-3,0l-6.79,3.85a3.67,3.67,0,0,0-1.39,3.29v.62a1,1,0,0,0,.62.84l4,2.29a3.3,3.3,0,0,0,3,0l7.56-4.29a1,1,0,0,0,.61-.84V129C171,126.92,170.5,125.72,169.49,125.15Z" fill="#5353e6"/>
        <line x1="163.21" y1="130.98" x2="170.17" y2="127.03" fill="none" stroke="#000" stroke-linecap="round" stroke-miterlimit="10"/>
        <path d="M169.49,125.15l-3.11-1.77a3.37,3.37,0,0,0-3,0l-6.79,3.85a3.67,3.67,0,0,0-1.39,3.29v.62a1,1,0,0,0,.62.84l4,2.29a3.3,3.3,0,0,0,3,0l7.56-4.29a1,1,0,0,0,.61-.84V129C171,126.92,170.5,125.72,169.49,125.15Z" fill="none" stroke="#000" stroke-linecap="round" stroke-miterlimit="10"/>
      </g>
      <path d="M843.48,470.32a3.59,3.59,0,0,1-1.8-.49l-516.18-298c-11.69-6.76-25.6-22.32-31-34.69l-11.45-26.24c-12-27.43-29.31-39.75-37.21-38.1-5,1-5.75,8.06-5.75,12.16v11.4a3.61,3.61,0,0,1-7.22,0V85c0-5.06,1.12-17.06,11.49-19.23,14-2.93,33.5,15.25,45.3,42.29l11.45,26.23c4.8,11,17.62,25.33,28,31.32l516.18,298a3.61,3.61,0,0,1-1.81,6.74Z"/>
    </g>
    <path d="M791.49,536.67c-3.53,11-14.62,15.3-24.65,9.52L392.16,329.86c-10-5.78-15.34-19.54-11.81-30.56l84-262.14c3.53-11,14.62-15.31,24.65-9.52L863.66,244c10,5.79,15.34,19.55,11.81,30.57Z" fill="#f5f5f5" stroke="#000" stroke-miterlimit="10"/>
    <path d="M876.53,266l-13.16,1.77-100.58,276,4.05,2.35c10,5.78,21.12,1.5,24.65-9.52l84-262.14A24.09,24.09,0,0,0,876.53,266Z" stroke="#000" stroke-miterlimit="10"/>
    <path d="M785.13,538c-3.53,11-14.63,15.31-24.65,9.52L385.8,331.15c-10-5.79-15.34-19.54-11.81-30.57L458,38.45c3.54-11,14.63-15.31,24.65-9.52L857.3,245.25c10,5.79,15.33,19.54,11.8,30.57Z" fill="#ebe9e9"/>
    <ellipse cx="477.63" cy="56.73" rx="11.58" ry="14.73" transform="translate(8.61 163.33) rotate(-19.58)"/>
    <path d="M460.34,348.56c-2.11,6.57-8.72,9.12-14.7,5.67L389.7,321.94a16.33,16.33,0,0,1-7-18.23l63.5-198.2c2.1-6.57,8.72-9.12,14.69-5.67l55.94,32.3a16.29,16.29,0,0,1,7,18.22Z" fill="#f5f5f5"/>
    <ellipse cx="393.92" cy="309.6" rx="6.4" ry="8.14" transform="translate(-80.97 149.9) rotate(-19.58)" fill="#ebe9e9"/>
    <ellipse cx="400.77" cy="288.2" rx="6.4" ry="8.14" transform="translate(-73.4 150.96) rotate(-19.58)" fill="#ebe9e9"/>
    <ellipse cx="407.63" cy="266.8" rx="6.4" ry="8.14" transform="translate(-65.84 152.02) rotate(-19.58)" fill="#ebe9e9"/>
    <path d="M730.78,201.06c-2.1,6.57-8.72,9.12-14.69,5.67l-133.35-77a16.32,16.32,0,0,1-7-18.23h0c2.11-6.57,8.72-9.12,14.7-5.67l133.34,77a16.29,16.29,0,0,1,7,18.22Z" fill="#f5f5f5"/>
    <g>
      <path d="M677.38,436.17a6,6,0,0,1-9.09,3.51l-160-92.35A10.1,10.1,0,0,1,504,336.06l3.82-11.92a6,6,0,0,1,9.09-3.51l160,92.35a10.09,10.09,0,0,1,4.36,11.27Z" fill="#b8a9a9"/>
      <ellipse cx="517.56" cy="337.31" rx="8.2" ry="10.42" transform="translate(-83.11 192.93) rotate(-19.58)" fill="#f5f5f5"/>
      <path d="M667.23,467.84a6,6,0,0,1-9.09,3.51L498.18,379a10.07,10.07,0,0,1-4.35-11.27l3.82-11.92a6,6,0,0,1,9.08-3.51l160,92.35a10.1,10.1,0,0,1,4.35,11.27Z" fill="#f5f5f5"/>
      <ellipse cx="507.81" cy="368.75" rx="8.2" ry="10.42" transform="translate(-94.21 191.48) rotate(-19.58)" fill="#b8a9a9"/>
      <path d="M660.27,489.59,486.86,389.47l.59-1.82a6,6,0,0,1,9.08-3.51l160,92.36a10.08,10.08,0,0,1,4.35,11.26Z" fill="#f5f5f5"/>
      <path d="M643.49,363.93c-2.11,6.57-8.72,9.12-14.7,5.67L525.25,309.82a16.32,16.32,0,0,1-7-18.22l39.07-121.93c2.1-6.57,8.71-9.13,14.69-5.68l103.54,59.78a16.31,16.31,0,0,1,7,18.22Z"/>
      <path d="M773.7,439.11c-2.11,6.57-8.72,9.12-14.69,5.67L655.47,385a16.29,16.29,0,0,1-7-18.22l39.06-121.93c2.11-6.58,8.72-9.13,14.69-5.68L805.72,299a16.29,16.29,0,0,1,7,18.22Z" fill="#5353e6"/>
      <polygon points="784.94 318.75 755.42 410.91 676.25 365.2 705.77 273.04 784.94 318.75" fill="none" stroke="#000" stroke-miterlimit="10"/>
      <path d="M637.68,256.68c-9.73-27.35-35-43.33-56.56-35.68s-31.06,36-21.33,63.38,35.05,43.33,56.56,35.68S647.41,284,637.68,256.68ZM614,313.51c-18.66,6.64-40.64-7.22-49.08-31s-.16-48.36,18.51-55,40.64,7.23,49.08,31S632.68,306.88,614,313.51Z" fill="#877777"/>
      <path d="M677.13,234c-1.41-4-5.08-6.28-8.19-5.17s-4.5,5.22-3.09,9.18,5.07,6.28,8.19,5.17S678.54,238,677.13,234Z" fill="#877777"/>
      <path d="M637.68,256.68c-5-13.94-14-24.92-24.47-31.33l-1.92,6c9.11,5.56,16.93,15.08,21.24,27.18,8.11,22.81.77,46.42-16.37,54.13l2.66,6.42C638.57,310.18,647,283,637.68,256.68Z" fill="#5353e6"/>
      <path d="M669.44,301.19c13.76,9.48,20.3-10,34-2.12s-8.16,55.42,13,66.11S757,294.7,779,305.91s-2.17,53.72,17.2,62.84" fill="none" stroke="#f5f5f5" stroke-miterlimit="10"/>
    </g>
    <path d="M785.13,538c-3.53,11-14.63,15.31-24.65,9.52L385.8,331.15c-10-5.79-15.34-19.54-11.81-30.57L458,38.45c3.54-11,14.63-15.31,24.65-9.52L857.3,245.25c10,5.79,15.33,19.54,11.8,30.57Z" fill="none" stroke="#000" stroke-miterlimit="10"/>
    <path d="M182.26,525.09c7.88,4.55,20.77,4.55,28.65,0L397.2,417.54c6.14-3.54,6.14-9.35,0-12.89l-72.57-41.9c-7.88-4.55-20.77-4.55-28.65,0L112.85,468.48c-7.87,4.55-7.87,12,0,16.54Z" fill="none" stroke="#000" stroke-miterlimit="10"/>
    <path d="M286.55,584.21c7.87,4.55,20.76,4.55,28.64,0L501.48,476.65c6.14-3.54,6.14-9.34,0-12.89l-72.57-41.9c-7.88-4.54-20.77-4.54-28.65,0L217.13,527.59c-7.87,4.55-7.87,12,0,16.54Z" fill="none" stroke="#000" stroke-miterlimit="10"/>
    <g>
      <g>
        <ellipse cx="222.49" cy="535.13" rx="1.1" ry="0.63"/>
        <ellipse cx="230.5" cy="530.5" rx="1.1" ry="0.63"/>
        <ellipse cx="238.52" cy="525.87" rx="1.1" ry="0.63"/>
        <ellipse cx="246.53" cy="521.25" rx="1.1" ry="0.63"/>
        <ellipse cx="254.54" cy="516.62" rx="1.1" ry="0.63"/>
        <ellipse cx="262.56" cy="511.99" rx="1.1" ry="0.63"/>
        <ellipse cx="270.57" cy="507.37" rx="1.1" ry="0.63"/>
        <ellipse cx="278.58" cy="502.74" rx="1.1" ry="0.63"/>
        <ellipse cx="286.6" cy="498.11" rx="1.1" ry="0.63"/>
        <ellipse cx="230.5" cy="539.75" rx="1.1" ry="0.63"/>
        <ellipse cx="238.52" cy="535.13" rx="1.1" ry="0.63"/>
        <ellipse cx="246.53" cy="530.5" rx="1.1" ry="0.63"/>
        <ellipse cx="254.54" cy="525.87" rx="1.1" ry="0.63"/>
        <ellipse cx="262.56" cy="521.25" rx="1.1" ry="0.63"/>
        <ellipse cx="270.57" cy="516.62" rx="1.1" ry="0.63"/>
        <ellipse cx="278.58" cy="511.99" rx="1.1" ry="0.63"/>
        <ellipse cx="286.6" cy="507.37" rx="1.1" ry="0.63"/>
        <ellipse cx="294.61" cy="502.74" rx="1.1" ry="0.63"/>
        <ellipse cx="238.52" cy="544.38" rx="1.1" ry="0.63"/>
        <ellipse cx="246.53" cy="539.75" rx="1.1" ry="0.63"/>
        <ellipse cx="254.54" cy="535.13" rx="1.1" ry="0.63"/>
        <ellipse cx="262.56" cy="530.5" rx="1.1" ry="0.63"/>
        <ellipse cx="270.57" cy="525.87" rx="1.1" ry="0.63"/>
        <ellipse cx="278.58" cy="521.25" rx="1.1" ry="0.63"/>
        <ellipse cx="286.6" cy="516.62" rx="1.1" ry="0.63"/>
        <ellipse cx="294.61" cy="511.99" rx="1.1" ry="0.63"/>
        <ellipse cx="302.62" cy="507.37" rx="1.1" ry="0.63"/>
        <ellipse cx="246.53" cy="549.01" rx="1.1" ry="0.63"/>
        <ellipse cx="254.54" cy="544.38" rx="1.1" ry="0.63"/>
        <ellipse cx="262.56" cy="539.75" rx="1.1" ry="0.63"/>
        <ellipse cx="270.57" cy="535.13" rx="1.1" ry="0.63"/>
        <ellipse cx="278.58" cy="530.5" rx="1.1" ry="0.63"/>
        <ellipse cx="286.6" cy="525.87" rx="1.1" ry="0.63"/>
        <ellipse cx="294.61" cy="521.25" rx="1.1" ry="0.63"/>
        <ellipse cx="302.62" cy="516.62" rx="1.1" ry="0.63"/>
        <ellipse cx="310.64" cy="511.99" rx="1.1" ry="0.63"/>
        <ellipse cx="254.54" cy="553.63" rx="1.1" ry="0.63"/>
        <ellipse cx="262.56" cy="549.01" rx="1.1" ry="0.63"/>
        <ellipse cx="270.57" cy="544.38" rx="1.1" ry="0.63"/>
        <ellipse cx="278.58" cy="539.75" rx="1.1" ry="0.63"/>
        <ellipse cx="286.6" cy="535.13" rx="1.1" ry="0.63"/>
        <ellipse cx="294.61" cy="530.5" rx="1.1" ry="0.63"/>
        <ellipse cx="302.62" cy="525.87" rx="1.1" ry="0.63"/>
        <ellipse cx="310.64" cy="521.25" rx="1.1" ry="0.63"/>
        <ellipse cx="318.65" cy="516.62" rx="1.1" ry="0.63"/>
        <ellipse cx="262.56" cy="558.26" rx="1.1" ry="0.63"/>
        <ellipse cx="270.57" cy="553.63" rx="1.1" ry="0.63"/>
        <ellipse cx="278.58" cy="549.01" rx="1.1" ry="0.63"/>
        <ellipse cx="286.6" cy="544.38" rx="1.1" ry="0.63"/>
        <ellipse cx="294.61" cy="539.75" rx="1.1" ry="0.63"/>
        <ellipse cx="302.62" cy="535.13" rx="1.1" ry="0.63"/>
        <ellipse cx="310.64" cy="530.5" rx="1.1" ry="0.63"/>
        <ellipse cx="318.65" cy="525.87" rx="1.1" ry="0.63"/>
        <ellipse cx="326.66" cy="521.25" rx="1.1" ry="0.63"/>
        <ellipse cx="270.57" cy="562.88" rx="1.1" ry="0.63"/>
        <ellipse cx="278.58" cy="558.26" rx="1.1" ry="0.63"/>
        <ellipse cx="286.6" cy="553.63" rx="1.1" ry="0.63"/>
        <ellipse cx="294.61" cy="549.01" rx="1.1" ry="0.63"/>
        <ellipse cx="302.62" cy="544.38" rx="1.1" ry="0.63"/>
        <ellipse cx="310.64" cy="539.75" rx="1.1" ry="0.63"/>
        <ellipse cx="318.65" cy="535.13" rx="1.1" ry="0.63"/>
        <ellipse cx="326.66" cy="530.5" rx="1.1" ry="0.63"/>
        <ellipse cx="334.68" cy="525.87" rx="1.1" ry="0.63"/>
        <ellipse cx="278.58" cy="567.51" rx="1.1" ry="0.63"/>
        <ellipse cx="286.6" cy="562.88" rx="1.1" ry="0.63"/>
        <ellipse cx="294.61" cy="558.26" rx="1.1" ry="0.63"/>
        <ellipse cx="302.62" cy="553.63" rx="1.1" ry="0.63"/>
        <ellipse cx="310.64" cy="549.01" rx="1.1" ry="0.63"/>
        <ellipse cx="318.65" cy="544.38" rx="1.1" ry="0.63"/>
        <ellipse cx="326.66" cy="539.75" rx="1.1" ry="0.63"/>
        <ellipse cx="334.68" cy="535.13" rx="1.1" ry="0.63"/>
        <ellipse cx="342.69" cy="530.5" rx="1.1" ry="0.63"/>
        <ellipse cx="286.6" cy="572.14" rx="1.1" ry="0.63"/>
        <ellipse cx="294.61" cy="567.51" rx="1.1" ry="0.63"/>
        <ellipse cx="302.62" cy="562.88" rx="1.1" ry="0.63"/>
        <ellipse cx="310.64" cy="558.26" rx="1.1" ry="0.63"/>
        <ellipse cx="318.65" cy="553.63" rx="1.1" ry="0.63"/>
        <ellipse cx="326.66" cy="549.01" rx="1.1" ry="0.63"/>
        <ellipse cx="334.68" cy="544.38" rx="1.1" ry="0.63"/>
        <ellipse cx="342.69" cy="539.75" rx="1.1" ry="0.63"/>
        <ellipse cx="350.7" cy="535.13" rx="1.1" ry="0.63"/>
        <ellipse cx="294.61" cy="576.76" rx="1.1" ry="0.63"/>
        <ellipse cx="302.62" cy="572.14" rx="1.1" ry="0.63"/>
        <ellipse cx="310.64" cy="567.51" rx="1.1" ry="0.63"/>
        <ellipse cx="318.65" cy="562.88" rx="1.1" ry="0.63"/>
        <ellipse cx="326.66" cy="558.26" rx="1.1" ry="0.63"/>
        <ellipse cx="334.68" cy="553.63" rx="1.1" ry="0.63"/>
        <ellipse cx="342.69" cy="549.01" rx="1.1" ry="0.63"/>
        <ellipse cx="350.7" cy="544.38" rx="1.1" ry="0.63"/>
        <ellipse cx="358.72" cy="539.75" rx="1.1" ry="0.63"/>
        <ellipse cx="302.62" cy="581.39" rx="1.1" ry="0.63"/>
        <ellipse cx="310.64" cy="576.76" rx="1.1" ry="0.63"/>
        <ellipse cx="318.65" cy="572.14" rx="1.1" ry="0.63"/>
        <ellipse cx="326.66" cy="567.51" rx="1.1" ry="0.63"/>
        <ellipse cx="334.68" cy="562.88" rx="1.1" ry="0.63"/>
        <ellipse cx="342.69" cy="558.26" rx="1.1" ry="0.63"/>
        <ellipse cx="350.7" cy="553.63" rx="1.1" ry="0.63"/>
        <ellipse cx="358.72" cy="549.01" rx="1.1" ry="0.63"/>
        <ellipse cx="366.73" cy="544.38" rx="1.1" ry="0.63"/>
      </g>
      <g>
        <path d="M397.44,530.51c4.19-2.42,4.19-6.37,0-8.79l-72.08-41.61a16.84,16.84,0,0,0-15.21,0l-10.06,5.8c-4.19,2.42-4.19,6.37,0,8.79l72.08,41.61a16.84,16.84,0,0,0,15.21,0Z" fill="#f5f5f5" stroke="#000" stroke-miterlimit="10"/>
        <line x1="359.2" y1="499.64" x2="337.8" y2="511.99" fill="#f5f5f5" stroke="#000" stroke-miterlimit="10"/>
      </g>
    </g>
    <path d="M496.87,705.64c7.88,4.55,20.77,4.55,28.65,0L711.8,598.09c6.14-3.55,6.14-9.35,0-12.9L532.24,481.52c-7.87-4.54-20.76-4.54-28.64,0L394.77,544.36l-47.62,27.49-26.68,15.4c-7.88,4.55-7.88,12,0,16.54Z" fill="#f5f5f5" stroke="#000" stroke-miterlimit="10"/>
    <g>
      <path d="M397.44,530.51c4.19-2.42,4.19-6.37,0-8.79l-72.08-41.61a16.84,16.84,0,0,0-15.21,0l-10.06,5.8c-4.19,2.42-4.19,6.37,0,8.79l72.08,41.61a16.84,16.84,0,0,0,15.21,0Z" fill="#f5f5f5" stroke="#000" stroke-miterlimit="10"/>
      <line x1="359.2" y1="499.64" x2="337.8" y2="511.99" fill="#f5f5f5" stroke="#000" stroke-miterlimit="10"/>
    </g>
    <path d="M713.54,580.54c7.88,4.55,20.77,4.55,28.65,0,6.14-3.54,6.14-9.34,0-12.89l-387.93-224c-6.14-3.55-16.19-3.55-22.33,0-7.88,4.55-7.88,12,0,16.54Z"/>
    <path d="M425.18,404.93a13.41,13.41,0,0,0,12.09,0c2.59-1.49,2.59-3.94,0-5.44l-89.06-51.42a10.44,10.44,0,0,0-9.43,0c-3.33,1.92-3.33,5.06,0,7Z" fill="#877777"/>
    <path d="M367,358.92l-18.78-10.85a10.44,10.44,0,0,0-9.43,0c-3.33,1.92-3.33,5.06,0,7l17.54,10.13Z" fill="#5353e6"/>
    <g>
      <path d="M331.77,573.27v23c0,2.9,4.08,5.25,9.1,5.25s9.09-2.35,9.09-5.25v-23Z" fill="#f5f5f5" stroke="#000" stroke-miterlimit="10"/>
      <path d="M331.77,573.27v23c0,2.9,4.08,5.25,9.1,5.25s9.09-2.35,9.09-5.25v-23Z" fill="#f5f5f5" stroke="#000" stroke-linecap="round" stroke-miterlimit="10"/>
      <ellipse cx="340.87" cy="573.27" rx="9.09" ry="5.25" fill="#f5f5f5" stroke="#000" stroke-linecap="round" stroke-miterlimit="10"/>
      <path d="M349.64,574.63a3.23,3.23,0,0,0,.32-1.36c0-2.9-4.07-5.25-9.09-5.25v6.61Z" stroke="#000" stroke-linecap="round" stroke-miterlimit="10"/>
      <g>
        <path d="M336.8,565.2v7.08c0,1.3,1.82,2.35,4.07,2.35s4.06-1,4.06-2.35V565.2Z" fill="#f5f5f5" stroke="#000" stroke-miterlimit="10"/>
        <path d="M336.8,565.2v7.08c0,1.3,1.82,2.35,4.07,2.35a5.25,5.25,0,0,0,3.45-1.1,1.71,1.71,0,0,0,.61-1.25V565.2Z" fill="#f5f5f5" stroke="#000" stroke-linecap="round" stroke-miterlimit="10"/>
        <ellipse cx="340.87" cy="565.2" rx="4.07" ry="2.35" stroke="#000" stroke-linecap="round" stroke-miterlimit="10"/>
      </g>
    </g>
    <g>
      <path d="M715.72,544.58v27.6c0,3.48,4.89,6.3,10.93,6.3s10.92-2.82,10.92-6.3v-27.6Z" fill="#f5f5f5" stroke="#000" stroke-miterlimit="10"/>
      <path d="M715.72,544.58v27.6c0,3.48,4.89,6.3,10.93,6.3s10.92-2.82,10.92-6.3v-27.6Z" fill="#f5f5f5" stroke="#000" stroke-linecap="round" stroke-miterlimit="10"/>
      <ellipse cx="726.65" cy="544.58" rx="10.93" ry="6.31" fill="#f5f5f5" stroke="#000" stroke-linecap="round" stroke-miterlimit="10"/>
      <path d="M737.19,546.22a3.94,3.94,0,0,0,.38-1.64c0-3.49-4.89-6.31-10.92-6.31v8Z" stroke="#000" stroke-linecap="round" stroke-miterlimit="10"/>
      <g>
        <path d="M721.76,534.89v8.51c0,1.55,2.19,2.82,4.89,2.82s4.88-1.27,4.88-2.82v-8.51Z" fill="#f5f5f5" stroke="#000" stroke-miterlimit="10"/>
        <path d="M721.76,534.89v8.51c0,1.55,2.19,2.82,4.89,2.82s4.88-1.27,4.88-2.82v-8.51Z" fill="#f5f5f5" stroke="#000" stroke-linecap="round" stroke-miterlimit="10"/>
        <ellipse cx="726.65" cy="534.89" rx="4.88" ry="2.82" stroke="#000" stroke-linecap="round" stroke-miterlimit="10"/>
      </g>
    </g>
    <g>
      <path d="M254.18,591.64a89,89,0,0,1-44.9-11.85l-80.67-46.57c-27.29-15.76-42.32-37-42.32-59.91s15-44.14,42.32-59.9L341.35,290.58c24.93-14.39,37.14-48.09,27.21-75.11L352.61,172c-2.66-7.23-6-20.32,1.64-26.73s19.95-.91,26.62,2.94l23.93,13.81a4,4,0,0,1-4,6.93l-23.93-13.81c-9.58-5.54-15.31-5.57-17.46-3.75s-3.11,7.46.71,17.85l15.95,43.44c11.21,30.51-2.57,68.55-30.72,84.8L132.61,420.33c-24.71,14.27-38.32,33.09-38.32,53s13.61,38.71,38.32,53l80.67,46.57c18.25,10.54,39.78,13.41,62.26,8.31,20.94-4.75,41.45-16.26,57.74-32.4,1.33-1.32,2.52-2.61,3.59-3.86V543.3c0-8.84,1.11-24,8.56-25.95a5.85,5.85,0,0,1,6.64,3c2.53,4.39,2.23,15-7.2,27.34v15.82a4,4,0,0,1-8,0v-7.11c-17,16.15-38.05,27.66-59.56,32.55A105,105,0,0,1,254.18,591.64Z"/>
      <path d="M336.43,545.36a33.58,33.58,0,0,0,8.11-14" fill="none" stroke="#f5f5f5" stroke-linecap="round" stroke-miterlimit="10"/>
      <path d="M247.25,352.53a3,3,0,0,1-1.5-5.6l96.1-55.48c25.33-14.63,37.74-48.87,27.65-76.33l-15.95-43.44c-4.43-12.05-3.95-21.15,1.35-25.61s14.35-3.39,25.47,3l23.93,13.81a3,3,0,1,1-3,5.19L377.37,154.3c-8.52-4.92-15.48-6.28-18.61-3.64s-3,9.72.42,19l15.95,43.43c11.05,30.08-2.53,67.58-30.28,83.59l-96.1,55.49A3,3,0,0,1,247.25,352.53Z" fill="#5353e6"/>
    </g>
    <path d="M228,363.62a3,3,0,0,1-1.5-5.59l4.3-2.49a3,3,0,1,1,3,5.2l-4.3,2.48A3,3,0,0,1,228,363.62Z" fill="#5353e6"/>
    <g>
      <path d="M417.81,163.8l-9.65-5.57a4.56,4.56,0,0,0-7,2.8l-2.26,7.74a5.53,5.53,0,0,0,2.41,6l10.94,6.31Z" fill="#f5f5f5" stroke="#000" stroke-linecap="round" stroke-miterlimit="10"/>
      <path d="M408.16,158.23l-1.37.48c-2.19.78-2.34,2.37-.32,3.54l10,5.77,1.35-4.22Z"/>
    </g>
    <g>
      <path d="M313,398.34c-7.77-4.49-20.5-4.49-28.28,0L191,452.44c-7.78,4.49-7.78,11.84,0,16.33l15,8.68c7.78,4.49,20.51,4.49,28.28,0l93.7-54.1c7.78-4.49,7.78-11.83,0-16.32Z" fill="none" stroke="#000" stroke-miterlimit="10"/>
      <path d="M303.58,412.47a6,6,0,0,0-5.41,0L215.5,460.2c-1.48.86-1.48,2.26,0,3.12a6,6,0,0,0,5.42,0l82.66-47.72C305.07,414.74,305.07,413.33,303.58,412.47Z"/>
    </g>
    <g>
      <path d="M284,438.29c2.84,1.63,2.84,4.31,0,5.94l-5.9,3.41a11.44,11.44,0,0,1-10.29,0L242.5,433c-2.83-1.64-2.83-4.31,0-5.95l11.05-6.37Z"/>
      <path d="M284.3,440.15a3.84,3.84,0,0,0,1.52-4.84l-1.3-2.76a15.53,15.53,0,0,1-1.22-5.49v-4.91c0-6.46-4.57-14.38-10.17-17.61l-12.66-7.31c-2.85-1.64-5.43-1.76-7.28-.62h0l-6.52,3.76-.1.07-.55.31,0,0c-1.51,1.18-2.42,3.3-2.42,6.18v8.39a16.7,16.7,0,0,1-1.15,5.53L241,424.27a4.58,4.58,0,0,0,1.87,5.64L267.8,444.3a10.32,10.32,0,0,0,9.31,0Z" fill="#f5f5f5" stroke="#000" stroke-linecap="round" stroke-miterlimit="10"/>
      <path d="M275.52,438.42l-1.18,2.95a14.07,14.07,0,0,0-.79,4,8.82,8.82,0,0,0,3.56-1.05l7.19-4.15a3.84,3.84,0,0,0,1.52-4.84l-1.3-2.76a15.53,15.53,0,0,1-1.22-5.49v-4.91a18.17,18.17,0,0,0-1.19-6.17l-4.79,2.54a2.69,2.69,0,0,0-1.33,3.06,17.46,17.46,0,0,1,.63,4.42v6.62A15.77,15.77,0,0,1,275.52,438.42Z"/>
      <path d="M243.63,407c0-6.46,4.57-9.1,10.17-5.87l12.65,7.31a21.12,21.12,0,0,1,7.65,8.44" fill="none" stroke="#000" stroke-linecap="round" stroke-miterlimit="10"/>
    </g>
    <g>
      <ellipse cx="697.95" cy="556.73" rx="9.37" ry="5.41" fill="none" stroke="#f5f5f5" stroke-linecap="round" stroke-miterlimit="10"/>
      <ellipse cx="673.17" cy="542.43" rx="9.37" ry="5.41" fill="none" stroke="#f5f5f5" stroke-linecap="round" stroke-miterlimit="10"/>
    </g>
    <g>
      <path d="M510.22,494.24c5.16-3,13.6-3,18.76,0l12.88,7.44c5.15,3,5.15,7.85,0,10.82s-13.6,3-18.76,0l-12.88-7.43C505.07,502.09,505.07,497.22,510.22,494.24Z"/>
      <ellipse cx="519.34" cy="499.71" rx="9.73" ry="5.62" fill="#f5f5f5"/>
    </g>
    <line x1="358.46" y1="363.98" x2="367.11" y2="358.99" fill="none" stroke="#000" stroke-linecap="round" stroke-miterlimit="10"/>
    <line x1="383.39" y1="378.37" x2="392.04" y2="373.38" fill="none" stroke="#000" stroke-linecap="round" stroke-miterlimit="10"/>
    <line x1="408.31" y1="392.76" x2="416.97" y2="387.77" fill="none" stroke="#000" stroke-linecap="round" stroke-miterlimit="10"/>
    <path d="M505.9,166.41a4.1,4.1,0,0,1-6.21,2.4l-62.29-36,8-24.95,62.29,36a6.89,6.89,0,0,1,3,7.7Z" fill="#ebe9e9"/>
    <g>
      <path d="M460.17,130.31c.73-2.29,2.46-3.32,4.31-2.24s2.48,3.44,1.75,5.74-2.45,3.31-4.31,2.24S459.43,132.6,460.17,130.31Zm4.75,2.75c.49-1.54.31-3.05-.84-3.71s-2.12.18-2.61,1.71-.28,3.05.87,3.72S464.44,134.58,464.92,133.06Z"/>
      <path d="M467.26,132.41l1.21.7-.19,3.27c0,.6-.08,1-.08,1h0s.17-.31.47-.76l1.66-2.43,1.19.69-3.33,4.59-1.15-.66Z"/>
      <path d="M471,137.81c.52-1.63,1.83-2.37,3.15-1.61s1.79,2.63,1.16,4.6L472,138.91a1.76,1.76,0,0,0,.72,2,.75.75,0,0,0,1.08-.17l1.18.68a1.76,1.76,0,0,1-2.62.62A3.5,3.5,0,0,1,471,137.81Zm1.38.1,2,1.16a1.5,1.5,0,0,0-.58-1.73C473.15,137,472.7,137.25,472.36,137.91Z"/>
      <path d="M478,139.65l0,0c.47-.47.88-.61,1.41-.31a1.1,1.1,0,0,1,.27.21l-.41,1.27h0c-.75-.55-1.47-.37-1.84.79l-.86,2.67-1.2-.69,1.77-5.49,1.15.66Z"/>
      <path d="M480.2,139.88l1.21.7-.19,3.27c0,.6-.08,1-.08,1h0s.18-.32.48-.77l1.65-2.42,1.2.69-3.34,4.59-1.14-.66Z"/>
      <path d="M485.15,142.74l1.19.69-1.76,5.49-1.19-.69Zm.69-2.17,1.19.69-.41,1.31-1.2-.69Z"/>
      <path d="M486.28,146.64c.52-1.62,1.83-2.37,3.15-1.61s1.79,2.64,1.16,4.6l-3.27-1.89a1.77,1.77,0,0,0,.72,2,.74.74,0,0,0,1.08-.18l1.18.68a1.76,1.76,0,0,1-2.62.63A3.52,3.52,0,0,1,486.28,146.64Zm1.38.1,2,1.16a1.5,1.5,0,0,0-.58-1.73C488.45,145.8,488,146.09,487.66,146.74Z"/>
      <path d="M492,146.69l1.18.68-.27,2.87c0,.5-.13,1.14-.13,1.14h0s.29-.53.53-.92l1.37-2.22,1,.59-.22,2.88c-.05.52-.12,1.16-.12,1.16h0s.3-.52.54-.91l1.39-2.22,1.15.67-3.1,4.72-1.09-.63.27-3.05c0-.49.1-1.07.1-1.07h0s-.28.45-.51.84l-1.48,2.34-1.09-.62Z"/>
    </g>
    <g>
      <path d="M453.68,151.57l2.81,1.62a3.07,3.07,0,0,1,1.35,1.44,2.51,2.51,0,0,1,0,1.73,1.26,1.26,0,0,1-1.48,1v0a2.58,2.58,0,0,1,.56,2.57,1.75,1.75,0,0,1-1.06,1.28,2.15,2.15,0,0,1-1.78-.3l-2.88-1.67Zm-.77,7.11,1.47.85a.81.81,0,0,0,1.32-.47,1.39,1.39,0,0,0-.67-1.69l-1.43-.83Zm2.44-2.49c.55.32,1,.22,1.22-.38a1.17,1.17,0,0,0-.61-1.43l-1.41-.81-.58,1.82Z"/>
      <path d="M460.06,163.61h0c-.36.28-.79.42-1.56,0a2.12,2.12,0,0,1-1-2.59c.39-1.21,1.32-1.13,2.38-.72.79.3,1.15.42,1.29,0a.93.93,0,0,0-.55-1.09c-.56-.32-.91-.23-1.12.27l-1.06-.61c.34-1,1.2-1.45,2.52-.69a2.4,2.4,0,0,1,1.25,3.12l-.89,2.8a1.3,1.3,0,0,0-.09.85l0,.05L460,164.3A1.76,1.76,0,0,1,460.06,163.61Zm.43-1.33.26-.82a3.08,3.08,0,0,1-.93-.16c-.68-.19-1-.2-1.21.32a1,1,0,0,0,1.88.66Z"/>
      <path d="M464.49,157.81l1.19.69-2.45,7.66-1.2-.69Z"/>
      <path d="M467.18,167.72h0c-.36.28-.79.42-1.56,0a2.13,2.13,0,0,1-1-2.59c.39-1.21,1.32-1.13,2.38-.72.79.3,1.16.42,1.29,0a.92.92,0,0,0-.55-1.09c-.56-.33-.91-.24-1.11.27l-1.07-.62c.35-.94,1.21-1.45,2.52-.69a2.39,2.39,0,0,1,1.25,3.12l-.89,2.8a1.3,1.3,0,0,0-.09.85v.06l-1.16-.67A2.26,2.26,0,0,1,467.18,167.72Zm.43-1.33.27-.82a2.85,2.85,0,0,1-.94-.16c-.68-.19-1-.2-1.21.32a1,1,0,0,0,1.88.66Z"/>
      <path d="M471.83,165.5l0,0a1.29,1.29,0,0,1,1.63-.13,2.46,2.46,0,0,1,.9,3l-1.15,3.59-1.2-.69,1.08-3.37a1.18,1.18,0,0,0-.46-1.46c-.53-.3-1.08,0-1.32.74l-1,3.11-1.19-.69,1.76-5.49,1.17.67Z"/>
      <path d="M474.89,169.64c.52-1.64,1.81-2.39,3.18-1.6a3,3,0,0,1,1.4,3.2l-1.17-.68a1.27,1.27,0,0,0-.55-1.32c-.72-.42-1.31,0-1.65,1.1s-.21,1.94.52,2.36a.78.78,0,0,0,1.2-.41L479,173a1.74,1.74,0,0,1-2.7.93A3.54,3.54,0,0,1,474.89,169.64Z"/>
      <path d="M479.8,172.47c.52-1.63,1.83-2.37,3.15-1.61s1.79,2.63,1.16,4.59l-3.27-1.89a1.77,1.77,0,0,0,.72,2,.75.75,0,0,0,1.08-.17l1.18.68a1.75,1.75,0,0,1-2.62.62A3.52,3.52,0,0,1,479.8,172.47Zm1.38.1,2,1.15a1.51,1.51,0,0,0-.58-1.73C482,171.63,481.52,171.91,481.18,172.57Z"/>
    </g>
    <g>
      <path d="M445.7,176.53l1.27.73-2.45,7.66-1.28-.73Z"/>
      <path d="M448.35,181.51l0,0a1.28,1.28,0,0,1,1.62-.13,2.46,2.46,0,0,1,.9,2.95l-1.15,3.59-1.2-.69,1.08-3.37a1.17,1.17,0,0,0-.46-1.46c-.52-.31-1.07,0-1.31.73l-1,3.12-1.2-.69,1.76-5.49,1.17.67Z"/>
      <path d="M452.06,182.76l1.21.7-.19,3.27c0,.6-.08,1-.08,1h0s.17-.31.47-.76l1.65-2.43,1.2.69L453,189.82l-1.14-.66Z"/>
      <path d="M455.78,188.16c.52-1.63,1.83-2.37,3.15-1.61s1.79,2.63,1.16,4.6l-3.27-1.89a1.76,1.76,0,0,0,.71,2,.76.76,0,0,0,1.09-.17l1.18.68a1.76,1.76,0,0,1-2.62.62A3.5,3.5,0,0,1,455.78,188.16Zm1.38.1,2,1.16a1.49,1.49,0,0,0-.58-1.73C458,187.32,457.5,187.6,457.16,188.26Z"/>
      <path d="M460.45,192l1.11.64a1.31,1.31,0,0,0,.69,1.48c.53.31.91.23,1-.15s-.39-.91-.95-1.42c-.75-.66-1.46-1.38-1.07-2.58s1.37-1.29,2.4-.7a2.6,2.6,0,0,1,1.35,2.94l-1.08-.62a1.11,1.11,0,0,0-.62-1.31c-.46-.27-.84-.23-1,.16s.43.86,1,1.39,1.45,1.37,1,2.66c-.35,1.1-1.34,1.32-2.46.67A2.77,2.77,0,0,1,460.45,192Z"/>
      <path d="M466.1,190.87l.62.36.55-1.71,1.17.67-.55,1.71.78.45-.31,1-.78-.45-.93,2.91a.62.62,0,0,0,.27.81c.15.09.36.19.36.19l-.34,1.07s-.28-.13-.76-.41a1.62,1.62,0,0,1-.8-2l1-3.23-.62-.36Z"/>
    </g>
    <path d="M388,436.76l37.1,21.43a10,10,0,0,0,9,0l22.23-12.84" fill="none" stroke="#000" stroke-miterlimit="10"/>
    <line x1="433.12" y1="462.82" x2="474.16" y2="486.52" fill="none" stroke="#000" stroke-miterlimit="10"/>
    <path d="M356.52,454.93l37.1,21.42a10,10,0,0,0,9,0l22.23-12.83" fill="none" stroke="#000" stroke-miterlimit="10"/>
    <line x1="401.66" y1="480.99" x2="442.7" y2="504.68" fill="none" stroke="#000" stroke-miterlimit="10"/>
    <g>
      <ellipse cx="591.53" cy="588.94" rx="49.62" ry="28.65" stroke="#000" stroke-miterlimit="10"/>
      <ellipse cx="598.73" cy="589.62" rx="66.7" ry="38.51" fill="none" stroke="#000" stroke-miterlimit="10"/>
      <ellipse cx="598.73" cy="588.47" rx="41.35" ry="23.88" fill="none" stroke="#b8a9a9" stroke-linecap="round" stroke-miterlimit="10"/>
      <path d="M647.15,545.37v35.2c0,15.44-21.68,28-48.42,28s-48.42-12.52-48.42-28v-35.2Z" fill="#f5f5f5"/>
      <rect x="598.73" y="570.66" width="2.81" height="37.7" transform="translate(1200.28 1179.02) rotate(180)" fill="#b8a9a9"/>
      <line x1="591.53" y1="573.02" x2="591.53" y2="608.22" fill="none" stroke="#b8a9a9" stroke-miterlimit="10"/>
      <path d="M604,545.37h43.13v35.2c0,14.41-18.87,26.27-43.13,27.79Z" fill="#b8a9a9"/>
      <path d="M647.15,545.37v35.2c0,15.44-21.68,28-48.42,28s-48.42-12.52-48.42-28v-35.2Z" fill="none" stroke="#000" stroke-miterlimit="10"/>
      <ellipse cx="598.73" cy="545.37" rx="48.42" ry="27.96" fill="#f5f5f5" stroke="#000" stroke-miterlimit="10"/>
      <ellipse cx="630.01" cy="535.85" rx="4.44" ry="2.56"/>
    </g>
    <g>
      <ellipse cx="465.45" cy="643.38" rx="22.36" ry="12.91" fill="none" stroke="#000" stroke-miterlimit="10"/>
      <g>
        <path d="M477.9,615.09v28.29c0,4-5.57,7.18-12.45,7.18S453,647.35,453,643.38V615.09Z" fill="#f5f5f5"/>
        <line x1="464.31" y1="618.52" x2="464.31" y2="650.56" fill="none" stroke="#b8a9a9" stroke-miterlimit="10"/>
        <path d="M477.9,615v28.38c0,3.47-4.88,7.18-10.89,7.18V615Z" fill="#b8a9a9"/>
        <path d="M477.9,615.09v28.29c0,4-5.57,7.18-12.45,7.18S453,647.35,453,643.38V615.09Z" fill="none" stroke="#000" stroke-linecap="round" stroke-miterlimit="10"/>
        <ellipse cx="465.45" cy="615.09" rx="12.45" ry="7.19" fill="#f5f5f5" stroke="#000" stroke-linecap="round" stroke-miterlimit="10"/>
        <line x1="474.84" y1="610.37" x2="469.57" y2="613.02" fill="none" stroke="#000" stroke-linecap="round" stroke-miterlimit="10"/>
      </g>
    </g>
    <g>
      <ellipse cx="509.23" cy="668.65" rx="22.36" ry="12.91" fill="none" stroke="#000" stroke-miterlimit="10"/>
      <g>
        <path d="M521.68,640.36v28.29c0,4-5.57,7.19-12.45,7.19s-12.45-3.22-12.45-7.19V640.36Z" fill="#f5f5f5"/>
        <line x1="508.1" y1="643.79" x2="508.1" y2="675.84" fill="none" stroke="#b8a9a9" stroke-miterlimit="10"/>
        <path d="M521.68,640.28v28.37c0,3.48-4.87,7.19-10.89,7.19V640.28Z" fill="#b8a9a9"/>
        <path d="M521.68,640.36v28.29c0,4-5.57,7.19-12.45,7.19s-12.45-3.22-12.45-7.19V640.36Z" fill="none" stroke="#000" stroke-linecap="round" stroke-miterlimit="10"/>
        <ellipse cx="509.23" cy="640.36" rx="12.45" ry="7.19" fill="#f5f5f5" stroke="#000" stroke-linecap="round" stroke-miterlimit="10"/>
        <line x1="518.62" y1="635.64" x2="513.35" y2="638.29" fill="none" stroke="#000" stroke-linecap="round" stroke-miterlimit="10"/>
      </g>
    </g>
    <g>
      <ellipse cx="421.67" cy="618.1" rx="22.36" ry="12.91" fill="none" stroke="#000" stroke-miterlimit="10"/>
      <g>
        <path d="M434.12,589.81V618.1c0,4-5.57,7.19-12.45,7.19s-12.45-3.22-12.45-7.19V589.81Z" fill="#f5f5f5"/>
        <line x1="420.53" y1="593.24" x2="420.53" y2="625.29" fill="none" stroke="#b8a9a9" stroke-miterlimit="10"/>
        <path d="M434.12,589.73V618.1c0,3.47-4.88,7.19-10.9,7.19V589.73Z" fill="#b8a9a9"/>
        <path d="M434.12,589.81V618.1c0,4-5.57,7.19-12.45,7.19s-12.45-3.22-12.45-7.19V589.81Z" fill="none" stroke="#000" stroke-linecap="round" stroke-miterlimit="10"/>
        <ellipse cx="421.67" cy="589.81" rx="12.45" ry="7.19" fill="#f5f5f5" stroke="#000" stroke-linecap="round" stroke-miterlimit="10"/>
        <line x1="431.05" y1="585.09" x2="425.79" y2="587.74" fill="none" stroke="#000" stroke-linecap="round" stroke-miterlimit="10"/>
      </g>
    </g>
    <g>
      <path d="M836.22,554.72a33.79,33.79,0,0,1-28.64-15.67l-22.5-36c-6.57-10.52-19.94-21.17-36-16.57-11.75,3.37-19.05,13.64-19.05,26.81V533a3.61,3.61,0,1,1-7.22,0V513.3c0-16.27,9.53-29.52,24.28-33.75,16.37-4.69,33.67,3,44.08,19.68l22.5,36a26.55,26.55,0,0,0,35.47,8.84l40.23-23.23c5.68-3.28,8.8-7.44,8.8-11.72s-3.12-8.45-8.8-11.73l-47.72-27.55a3.61,3.61,0,1,1,3.61-6.25L893,491.13c8,4.62,12.41,11,12.41,18s-4.41,13.35-12.41,18l-40.23,23.23A33.05,33.05,0,0,1,836.22,554.72Z"/>
      <path d="M794.9,505.15l18.8,30.07a26,26,0,0,0,5.67,6.39" fill="none" stroke="#318510" stroke-miterlimit="10"/>
      <path d="M812.78,545.42a33.26,33.26,0,0,1-5.2-6.37L792,514.1" fill="none" stroke="#318510" stroke-miterlimit="10"/>
    </g>
  </g>
</svg>
