<svg id="Design" xmlns="http://www.w3.org/2000/svg" xmlns:xlink="http://www.w3.org/1999/xlink" width="990" height="730" viewBox="0 0 990 730">
  <defs>
    <linearGradient id="linear-gradient" x1="719.74" y1="317.63" x2="742.11" y2="317.63" gradientUnits="userSpaceOnUse">
      <stop offset="0.31" stop-color="#fff"/>
      <stop offset="0.7" stop-color="#b8a9a9"/>
      <stop offset="0.76" stop-color="#c3b6b6"/>
      <stop offset="0.88" stop-color="#dfd9d9"/>
      <stop offset="1" stop-color="#fff"/>
    </linearGradient>
  </defs>
  <g>
    <g>
      <g>
        <path d="M544.8,377.9a25.84,25.84,0,0,0-6.59,2.57l-127,73.3a14.6,14.6,0,0,0-4.46,3.8Z" stroke="#000" stroke-miterlimit="10"/>
        <path d="M685.4,450.47a12.79,12.79,0,0,0-5.52-5.61L568.36,380.47a27.84,27.84,0,0,0-9.71-3.18Z" stroke="#000" stroke-miterlimit="10"/>
        <path d="M950.54,340.18c17.57-10.15,17.57-26.75,0-36.9L615.12,109.63c-17.57-10.14-46.33-10.14-63.9,0l-510.9,295c-17.57,10.15-17.57,26.75,0,36.89L375.73,635.15c17.58,10.14,46.33,10.14,63.9,0Zm-8.36-33.26c14.16,8.18,14.16,21.55,0,29.72l-508.7,293.7c-14.15,8.17-37.32,8.17-51.47,0L48.64,437.87c-14.15-8.17-14.15-21.54,0-29.72l508.7-293.7c14.16-8.17,37.32-8.17,51.47,0Z" stroke="#000" stroke-miterlimit="10"/>
      </g>
      <polygon points="160.91 343.33 160.91 334.98 128.2 353.86 128.2 362.22 160.91 343.33" fill="#fff" stroke="#000" stroke-miterlimit="10"/>
      <polygon points="128.2 483.8 128.2 492.23 160.91 511.12 160.91 502.69 128.2 483.8" fill="#fff" stroke="#000" stroke-miterlimit="10"/>
      <polygon points="118.77 367.67 108.84 373.4 108.84 365.04 118.77 359.31 118.77 367.67" fill="#fff" stroke="#000" stroke-miterlimit="10"/>
      <polygon points="108.84 480.98 118.77 486.71 118.77 478.36 108.84 472.63 108.84 480.98" fill="#fff" stroke="#000" stroke-miterlimit="10"/>
    </g>
    <path d="M522.78,535.56c8.29,4.79,21.86,4.79,30.15,0l127-73.29c8.29-4.79,8.29-12.62,0-17.41L568.36,380.47c-8.29-4.78-21.86-4.78-30.15,0l-127,73.3c-8.29,4.79-8.29,12.62,0,17.41Z" fill="#403c3c" stroke="#000" stroke-miterlimit="10"/>
    <path d="M568.36,403.49,675,465.07l4.85-2.8c8.29-4.79,8.29-12.62,0-17.41L568.36,380.47c-8.29-4.78-21.86-4.78-30.15,0l-127,73.3c-8.29,4.79-8.29,12.62,0,17.41l4.85,2.8,122.1-70.49C546.5,398.7,560.07,398.7,568.36,403.49Z" stroke="#000" stroke-miterlimit="10"/>
    <g>
      <path d="M433.56,473l6,3.48,1.6-.92,1,.6-4.52,2.61-1-.61,1.73-1-4.42-2.57A2.86,2.86,0,0,1,432.8,476l-1.21-.58a3.55,3.55,0,0,0,1.62-2.19Z" fill="#5ffc3f"/>
      <polygon points="462.3 459.84 461.33 460.4 462.3 461.12 463.27 460.56 463.96 461.07 463 461.63 464.9 463.03 464.05 463.52 462.15 462.12 461.18 462.68 463.08 464.08 462.23 464.57 460.33 463.17 459.35 463.74 458.66 463.22 459.63 462.66 458.65 461.94 457.68 462.5 456.98 461.99 457.96 461.43 456.23 460.16 457.08 459.67 458.81 460.94 459.78 460.38 458.05 459.11 458.9 458.62 460.63 459.89 461.6 459.33 462.3 459.84" fill="#5ffc3f"/>
      <polygon points="461.45 461.61 460.48 462.17 459.5 461.45 460.48 460.89 461.45 461.61" fill="#5ffc3f"/>
      <path d="M464.12,456.65a1.7,1.7,0,0,1-1.62,0c-.45-.26-.43-.65.06-.93a1.67,1.67,0,0,1,1.62,0C464.64,456,464.61,456.36,464.12,456.65Z" fill="#5ffc3f"/>
      <polygon points="469.66 459.19 471.4 458.18 472.34 458.73 467.67 461.43 466.72 460.88 468.49 459.86 465.18 457.94 463.41 458.96 462.47 458.41 465.4 456.71 469.66 459.19" fill="#5ffc3f"/>
      <path d="M471.22,453.21a3.45,3.45,0,0,1,3.7.11l3.39,2-1.18.67L473.76,454a1.62,1.62,0,0,0-1.8-.07c-.61.35-.76.85-.06,1.53l3,1.76-1.17.68-5.2-3,1.06-.61,1,.5C470.19,454.16,470.44,453.66,471.22,453.21Z" fill="#5ffc3f"/>
      <path d="M476.91,449.92a4.42,4.42,0,0,1,4.14-.19l-1,.77a2.34,2.34,0,0,0-2.21,0c-.81.47-.74,1.06.51,1.78a3,3,0,0,0,3.09.3c.63-.36.61-.76,0-1.26l1.31-.55c1.05.82.83,1.65-.4,2.36a5.18,5.18,0,0,1-5.27-.14C475.54,452.06,475.15,450.94,476.91,449.92Z" fill="#5ffc3f"/>
      <polygon points="481.51 445.11 487.75 448.74 489.49 447.73 490.44 448.28 485.76 450.98 484.82 450.43 486.58 449.41 481.29 446.34 479.52 447.36 478.57 446.81 481.51 445.11" fill="#5ffc3f"/>
      <path d="M491.21,441.82l5.2,3-1.06.61-1-.51c.4.62.15,1.14-.64,1.6a3.44,3.44,0,0,1-3.67-.13l-3.39-2,1.17-.68,3.37,2a1.62,1.62,0,0,0,1.79.07c.59-.34.8-.8.3-1.4l-3.26-1.9Z" fill="#5ffc3f"/>
      <path d="M494,437.88l1.17-.68,7.19,4.17-1,.59-.84-.4c.32.52.08,1-.63,1.41a5,5,0,0,1-4.89-.37c-1.53-.89-2-2-.51-2.84a3,3,0,0,1,2.1-.39Zm5.41,3.14-1.6-.93a2.46,2.46,0,0,0-2.11.06c-.81.47-.53,1.1.58,1.75a2.93,2.93,0,0,0,2.94.34c.55-.32.66-.74.19-1.22" fill="#5ffc3f"/>
      <path d="M505.64,436.12a5,5,0,0,1,.6.42l-3.47,2a3,3,0,0,0,2.9,0c.61-.35.82-.72.75-1.18l1.23,0c.16.66-.24,1.25-1.13,1.76a5.21,5.21,0,0,1-5.3-.12c-1.62-.94-1.83-2.09-.22-3A4.54,4.54,0,0,1,505.64,436.12Zm-1.34.56a2.24,2.24,0,0,0-2.42-.14c-.83.48-.63,1,.06,1.5l2.36-1.36" fill="#5ffc3f"/>
      <polygon points="515.1 428.19 516.03 428.74 514.12 431.06 518.14 429.96 519.07 430.5 513.91 431.88 512.7 431.18 515.1 428.19" fill="#5ffc3f"/>
      <path d="M519.47,425.35a3.45,3.45,0,0,1,3.7.1l3.39,2-1.17.67-3.37-2a1.64,1.64,0,0,0-1.8-.06c-.61.35-.76.85-.06,1.53l3,1.76-1.17.68-5.2-3,1.06-.61,1,.5C518.44,426.3,518.69,425.8,519.47,425.35Z" fill="#5ffc3f"/>
      <path d="M527.4,420.92l5.2,3-1.05.61-1-.51c.41.63.16,1.14-.64,1.6a3.46,3.46,0,0,1-3.67-.12l-3.39-2,1.17-.68,3.37,2a1.63,1.63,0,0,0,1.8.06c.59-.34.8-.79.29-1.4l-3.26-1.89Z" fill="#5ffc3f"/>
      <path d="M532.47,417.84a2.58,2.58,0,0,1,2.71.29l3.73,2.17-1.06.61-3.67-2.14c-.49-.28-.81-.31-1.07-.16s-.28.32,0,.6l.1.07,3.73,2.16-1.06.62-3.67-2.14c-.49-.28-.81-.32-1.07-.17s-.29.32,0,.6l3.85,2.24-1,.61-5.2-3,.9-.52.52.27c-.23-.39-.05-.69.39-.95a2.07,2.07,0,0,1,1.6-.18C531.84,418.41,532,418.1,532.47,417.84Z" fill="#5ffc3f"/>
      <path d="M537.51,414.94a4.71,4.71,0,0,1,4.72.37c1.63.95,2,2.05.62,2.86a3.33,3.33,0,0,1-2.35.37l.66.46-1,.59L533,415.41l1.18-.68,2.68,1.56C536.55,415.77,536.82,415.33,537.51,414.94Zm4.13,2.83c.78-.45.5-1.08-.62-1.73a2.94,2.94,0,0,0-2.91-.35c-.56.32-.67.76-.16,1.27l1.56.9a2.58,2.58,0,0,0,2.13-.09" fill="#5ffc3f"/>
      <path d="M547.86,411.74a5.08,5.08,0,0,1,.61.42l-3.48,2a3,3,0,0,0,2.91,0c.6-.35.82-.72.74-1.17l1.23,0c.16.65-.23,1.24-1.12,1.75a5.23,5.23,0,0,1-5.31-.12c-1.61-.94-1.83-2.09-.22-3A4.54,4.54,0,0,1,547.86,411.74Zm-1.33.56a2.26,2.26,0,0,0-2.42-.14c-.83.48-.64,1,0,1.5l2.37-1.36" fill="#5ffc3f"/>
      <path d="M549.82,407.82a3.33,3.33,0,0,1,3.52.16,4.33,4.33,0,0,1,.79.58l-1.07.75a8,8,0,0,0-.85-.59,1.6,1.6,0,0,0-1.73-.11c-.53.3-.66.75.07,1.44l3.05,1.77-1.17.67-5.2-3,1-.59,1,.54C548.87,408.84,549,408.31,549.82,407.82Z" fill="#5ffc3f"/>
      <polygon points="553.54 406 558.71 404.62 559.92 405.32 557.51 408.31 556.58 407.77 558.49 405.44 554.48 406.54 553.54 406" fill="#5ffc3f"/>
      <path d="M444.93,480.41a4.09,4.09,0,0,1,4.23-.18,1.38,1.38,0,0,1,.64,2.15l-.42.88c-.27.52-.21.81.34,1.13l.06,0,3.45-2,1,.61-4.81,2.77-.76-.45c-1.08-.62-1.31-1.07-.7-2.3l.33-.66c.26-.55.31-1-.37-1.38a1.9,1.9,0,0,0-2.05,0c-.71.41-.75.8,0,1.42l-1.46.53C443.32,482.1,443.55,481.21,444.93,480.41Z" fill="#5ffc3f"/>
      <path d="M470.07,467.1a1.68,1.68,0,0,1-1.61,0c-.46-.26-.43-.65.06-.94a1.7,1.7,0,0,1,1.61,0C470.59,466.43,470.56,466.81,470.07,467.1Z" fill="#5ffc3f"/>
      <polygon points="475.61 469.63 477.35 468.63 478.29 469.18 473.62 471.88 472.68 471.33 474.44 470.31 471.13 468.39 469.37 469.4 468.42 468.86 471.36 467.16 475.61 469.63" fill="#5ffc3f"/>
      <path d="M477.17,463.66a3.45,3.45,0,0,1,3.7.1l3.39,2-1.17.68-3.37-2a1.65,1.65,0,0,0-1.81-.06c-.61.35-.75.85-.05,1.53l3,1.76-1.18.68-5.19-3,1.05-.61,1,.5C476.14,464.61,476.39,464.11,477.17,463.66Z" fill="#5ffc3f"/>
      <path d="M480.68,459.81l1.7,1,2.51-1.45.95.55-2.52,1.45,2.34,1.35a1.77,1.77,0,0,0,1.91.23c.54-.31.43-.67-.29-1.09-.24-.14-.54-.28-.84-.42l1.14-.55a6,6,0,0,1,.84.4c1.16.67,1.32,1.45,0,2.2a3.71,3.71,0,0,1-3.94-.1L482.17,462l-1,.59-.94-.55,1-.59-1.52-.88Z" fill="#5ffc3f"/>
      <path d="M496.2,452.67a2.58,2.58,0,0,1,2.71.29l3.73,2.16-1.06.61-3.67-2.13c-.49-.28-.81-.32-1.07-.17s-.28.33,0,.61l.11.06,3.73,2.17-1.06.61-3.67-2.13c-.49-.29-.81-.32-1.07-.17s-.29.32,0,.6l3.85,2.24-1.06.61-5.19-3,.9-.52.52.27c-.23-.39-.05-.7.39-.95a2,2,0,0,1,1.6-.19C495.57,453.23,495.75,452.93,496.2,452.67Z" fill="#5ffc3f"/>
      <path d="M507.86,451.1l.85.48a2,2,0,0,1-.57.45,1.89,1.89,0,0,1-1.65.21c.17.46-.17.91-.91,1.34a3.39,3.39,0,0,1-3.34.11c-.95-.55-.84-1.29.47-2a4.76,4.76,0,0,1,1.62-.6l-.66-.39a1.91,1.91,0,0,0-2.1,0c-.62.36-.69.68-.14,1.08l-1.28.57c-.91-.69-.78-1.43.53-2.19a3.78,3.78,0,0,1,4.06-.08l2,1.16a.84.84,0,0,0,.94.07Zm-2.09.78-.67-.39a4.07,4.07,0,0,0-1.33.48l0,0c-.7.41-.79.72-.31,1a1.61,1.61,0,0,0,1.64-.11l0,0c.5-.28.72-.59.68-1" fill="#5ffc3f"/>
      <path d="M506.26,446.2a1.68,1.68,0,0,1-1.61,0c-.45-.26-.43-.65.06-.93a1.65,1.65,0,0,1,1.61,0C506.78,445.53,506.75,445.92,506.26,446.2Z" fill="#5ffc3f"/>
      <polygon points="511.8 448.74 513.54 447.73 514.49 448.28 509.81 450.98 508.87 450.43 510.63 449.42 507.32 447.49 505.56 448.51 504.61 447.96 507.55 446.26 511.8 448.74" fill="#5ffc3f"/>
      <path d="M513.36,442.76a3.47,3.47,0,0,1,3.7.11l3.39,2-1.17.68-3.37-2a1.64,1.64,0,0,0-1.8-.07c-.62.36-.76.86-.06,1.53l3,1.77-1.17.67-5.2-3,1.05-.61,1,.51C512.33,443.72,512.58,443.21,513.36,442.76Z" fill="#5ffc3f"/>
      <path d="M523.29,433.58l1.28.17c-.83,1.46-.23,3,1.59,4.05a10.59,10.59,0,0,0,7,.94l.28.74a12.47,12.47,0,0,1-8.28-1.1C523,437.11,522.29,435.3,523.29,433.58Z" fill="#5ffc3f"/>
      <path d="M526.63,431.65a12.37,12.37,0,0,1,8.27,1.11c2.18,1.26,2.88,3.08,1.88,4.79l-1.28-.16c.82-1.47.22-3-1.59-4.06a10.54,10.54,0,0,0-7-.93Z" fill="#5ffc3f"/>
      <path d="M456.87,487.4a3.91,3.91,0,0,1,4-.26c.83.48.91,1.06.24,1.68a3.62,3.62,0,0,1,3.23.07c1.24.72,1.14,1.73-.46,2.66a4.69,4.69,0,0,1-4.42.32l1.05-.81a2.54,2.54,0,0,0,2.32-.1c.84-.48.89-.94.15-1.37a2.47,2.47,0,0,0-2.6.27l-.49.28-1-.58.49-.28c.77-.44,1.16-.88.39-1.33a1.82,1.82,0,0,0-1.92.05c-.65.38-.66.74-.18,1.18l-1.37.58C455.33,489,455.54,488.17,456.87,487.4Z" fill="#5ffc3f"/>
      <path d="M467.26,495.34l1.32-.61a7.92,7.92,0,0,1,3.23,2.78l1.91-1.09-4.05-2.36,1.15-.67,4.06,2.36.94-.54,1,.57-.94.54,1.76,1-1.16.67-1.75-1-3.14,1.81-.56-.09A8.39,8.39,0,0,0,467.26,495.34Z" fill="#5ffc3f"/>
      <path d="M493.81,479.67,495,479l7.19,4.18-1,.59-.84-.41c.32.52.07,1-.64,1.41a5,5,0,0,1-4.89-.36c-1.53-.9-2-2-.5-2.85a3.07,3.07,0,0,1,2.09-.39Zm5.41,3.14-1.61-.93a2.5,2.5,0,0,0-2.11.06c-.81.47-.52,1.1.59,1.75A2.91,2.91,0,0,0,499,484c.55-.32.67-.73.2-1.22" fill="#5ffc3f"/>
      <path d="M507.7,479l.85.47a1.86,1.86,0,0,1-.57.45,1.88,1.88,0,0,1-1.65.21c.17.46-.17.92-.9,1.34a3.38,3.38,0,0,1-3.35.11c-.95-.55-.83-1.28.47-2a4.94,4.94,0,0,1,1.63-.6l-.67-.39a1.91,1.91,0,0,0-2.1,0c-.62.36-.68.68-.14,1.08l-1.28.57c-.91-.69-.77-1.43.53-2.18a3.76,3.76,0,0,1,4.06-.09l2,1.16a.82.82,0,0,0,.93.07Zm-2.09.78-.67-.39a3.78,3.78,0,0,0-1.34.48h0c-.69.41-.79.72-.31,1a1.58,1.58,0,0,0,1.64-.11l0,0c.49-.28.71-.58.67-1" fill="#5ffc3f"/>
      <path d="M504.66,473.74l1.69,1,2.51-1.45.95.55-2.51,1.45,2.33,1.35a1.8,1.8,0,0,0,1.91.24c.54-.32.43-.68-.29-1.1-.24-.14-.54-.28-.84-.42l1.14-.55a5.53,5.53,0,0,1,.84.4c1.16.67,1.32,1.45,0,2.2a3.71,3.71,0,0,1-3.93-.09l-2.35-1.37-1,.59-.95-.55,1-.59-1.52-.88Z" fill="#5ffc3f"/>
      <path d="M519.76,472l.85.47a1.81,1.81,0,0,1-.56.46,1.93,1.93,0,0,1-1.66.2c.18.47-.17.92-.9,1.34a3.38,3.38,0,0,1-3.35.12c-.95-.55-.83-1.29.48-2a4.76,4.76,0,0,1,1.62-.6l-.67-.39a1.91,1.91,0,0,0-2.1-.05c-.62.36-.68.68-.14,1.09l-1.28.56c-.91-.68-.77-1.43.54-2.18a3.8,3.8,0,0,1,4.06-.09l2,1.16a.81.81,0,0,0,.93.07A.94.94,0,0,0,519.76,472Zm-2.08.78-.67-.39a4.06,4.06,0,0,0-1.35.49h0c-.7.4-.8.72-.31,1a1.61,1.61,0,0,0,1.64-.12h0c.5-.29.72-.59.68-1" fill="#5ffc3f"/>
      <path d="M523.69,461.24l.16-.09.91.46-.14.08c-1.23.71-1.56,1.09-.71,1.59a6.37,6.37,0,0,0,1,.4,7.2,7.2,0,0,1,1.21.53c.62.39.73.8.21,1.28a2.65,2.65,0,0,1,2.23.13,5.11,5.11,0,0,1,.9.71,4.24,4.24,0,0,0,.69.56c.85.49,1.52.3,2.75-.41l.14-.08.79.53-.14.09c-1.73,1-3.16,1.27-4.36.57a3.1,3.1,0,0,1-.71-.59,3.66,3.66,0,0,0-.8-.66c-.8-.47-1.51-.3-2.5.27l-.92-.53c1-.57,1.28-1,.48-1.45a5.52,5.52,0,0,0-1.14-.46,5.12,5.12,0,0,1-1-.42C521.5,463.06,522,462.23,523.69,461.24Z" fill="#5ffc3f"/>
      <path d="M530.05,458.61a2,2,0,0,1,2.05.16c1,.59,1.19,1.37.63,2.15l-1-.14a.85.85,0,0,0-.18-1.26.73.73,0,0,1-.13.09,1.48,1.48,0,0,1-1.48-.05C529.52,459.3,529.51,458.92,530.05,458.61Z" fill="#5ffc3f"/>
      <path d="M527.68,460a2.08,2.08,0,0,1,2.06.17c1,.58,1.18,1.37.62,2.15l-1-.14a.87.87,0,0,0-.18-1.26l-.13.08a1.5,1.5,0,0,1-1.49,0C527.15,460.67,527.14,460.29,527.68,460Z" fill="#5ffc3f"/>
      <path d="M535.87,455.22a5.1,5.1,0,0,1,1.5-.59l.61.68a3.28,3.28,0,0,0-1.06.4c-.72.41-.7.73-.18,1l.38.22,1.93-1.11.94.54-1.93,1.12,3.32,1.93,1.93-1.12.94.55-4.4,2.54-.94-.55,1.3-.75-3.32-1.92-1.3.75-.94-.55,1.3-.75-.42-.24C534.44,456.76,534.6,456,535.87,455.22Z" fill="#5ffc3f"/>
      <path d="M542.3,453.17a1.7,1.7,0,0,1-1.62,0c-.45-.26-.43-.65.06-.94a1.72,1.72,0,0,1,1.62,0C542.82,452.5,542.79,452.88,542.3,453.17Z" fill="#5ffc3f"/>
      <polygon points="547.84 455.7 549.58 454.7 550.52 455.25 545.85 457.95 544.9 457.4 546.67 456.38 543.36 454.46 541.6 455.48 540.65 454.93 543.59 453.23 547.84 455.7" fill="#5ffc3f"/>
      <path d="M549.4,449.73a3.45,3.45,0,0,1,3.7.1l3.39,2-1.17.68-3.38-2a1.63,1.63,0,0,0-1.8-.06c-.61.35-.76.85-.06,1.53l3,1.76-1.18.68-5.19-3,1-.61,1,.5C548.37,450.68,548.62,450.18,549.4,449.73Z" fill="#5ffc3f"/>
      <path d="M562,447.62l.85.47a1.73,1.73,0,0,1-.57.46,1.91,1.91,0,0,1-1.65.2c.17.47-.17.92-.9,1.35a3.4,3.4,0,0,1-3.35.11c-1-.55-.83-1.29.47-2a4.73,4.73,0,0,1,1.63-.6l-.67-.39a1.89,1.89,0,0,0-2.1,0c-.62.35-.68.67-.14,1.08l-1.28.56c-.91-.68-.78-1.42.53-2.18a3.8,3.8,0,0,1,4.06-.09l2,1.17a.84.84,0,0,0,.93.07Zm-2.09.78-.67-.39a4,4,0,0,0-1.34.49h0c-.69.4-.79.72-.31,1a1.61,1.61,0,0,0,1.64-.12h0c.5-.29.72-.59.68-1" fill="#5ffc3f"/>
      <path d="M561.46,442.76a3.47,3.47,0,0,1,3.7.11l3.39,2-1.17.68-3.37-2a1.65,1.65,0,0,0-1.81-.07c-.61.36-.75.86-.05,1.53l3,1.77-1.17.67-5.2-3,1.06-.61,1,.51C560.43,443.72,560.68,443.21,561.46,442.76Z" fill="#5ffc3f"/>
      <path d="M567.16,439.47a4.4,4.4,0,0,1,4.13-.19l-1,.77a2.34,2.34,0,0,0-2.21,0c-.81.47-.74,1.06.51,1.79a3,3,0,0,0,3.09.29c.63-.36.6-.76,0-1.26l1.32-.55c1,.82.83,1.65-.4,2.36a5.19,5.19,0,0,1-5.28-.14C565.78,441.62,565.4,440.49,567.16,439.47Z" fill="#5ffc3f"/>
      <path d="M577.79,436.12a5,5,0,0,1,.6.42l-3.47,2a3,3,0,0,0,2.9,0c.61-.35.82-.72.74-1.17l1.24,0c.16.66-.24,1.25-1.13,1.76a5.23,5.23,0,0,1-5.31-.12c-1.61-.94-1.82-2.09-.22-3A4.56,4.56,0,0,1,577.79,436.12Zm-1.34.56a2.26,2.26,0,0,0-2.42-.14c-.83.48-.63,1,.06,1.5l2.36-1.36" fill="#5ffc3f"/>
      <path d="M578.31,430.75a2,2,0,0,1,2.05.16c1,.59,1.18,1.37.63,2.15l-1-.14a.87.87,0,0,0-.18-1.26l-.13.09a1.51,1.51,0,0,1-1.48-.05C577.77,431.44,577.76,431.06,578.31,430.75Z" fill="#5ffc3f"/>
      <path d="M575.94,432.11a2.06,2.06,0,0,1,2,.17c1,.58,1.19,1.37.63,2.15l-1-.14c.27-.49.29-.92-.18-1.26a.49.49,0,0,1-.13.08,1.51,1.51,0,0,1-1.48,0C575.41,432.8,575.4,432.42,575.94,432.11Z" fill="#5ffc3f"/>
      <path d="M483.17,500.15l1,.6-2.91,1.68,1.54,1.22c0-.41.33-.75.92-1.09a4.15,4.15,0,0,1,4.21.1c1.54.89,1.37,1.95-.1,2.8a4.76,4.76,0,0,1-4.24.34l1-.78a2.6,2.6,0,0,0,2.25-.16c.82-.47.82-1-.05-1.51a2.35,2.35,0,0,0-2.45-.05c-.52.3-.72.63-.66,1.05l-1.44.33-3-2.3Z" fill="#5ffc3f"/>
      <path d="M495.75,509.51a4.38,4.38,0,0,1,4.36.05c1.51.88,1.31,2,0,2.74-1.54.89-3.64.89-6.05-.51s-2.54-2.71-.73-3.76a5.54,5.54,0,0,1,2.54-.71l.41.82a4.07,4.07,0,0,0-1.92.48c-1.26.73-.75,1.54.64,2.4C494.7,510.48,495,510,495.75,509.51Zm3.29,2.2c.73-.41.72-.95-.14-1.44a2.33,2.33,0,0,0-2.4-.08c-.75.43-.74,1-.07,1.53a2.92,2.92,0,0,0,2.61,0" fill="#5ffc3f"/>
      <path d="M507.4,513.93l.91.53c-.08,2.17,1.24,3.4,3.72,4.81l-1.41.68c-2.37-1.34-3.59-2.85-3.32-4.76l-3.74,2.16-1-.61Z" fill="#5ffc3f"/>
    </g>
    <path d="M942.18,336.64c14.16-8.17,14.16-21.54,0-29.72L608.81,114.45c-14.15-8.17-37.31-8.17-51.47,0L48.64,408.15c-14.15,8.18-14.15,21.55,0,29.72L382,630.34c14.15,8.17,37.32,8.17,51.47,0ZM679.88,444.86c8.29,4.79,8.29,12.62,0,17.41l-127,73.29c-8.29,4.79-21.86,4.79-30.15,0L411.26,471.18c-8.29-4.79-8.29-12.62,0-17.41l127-73.3c8.29-4.78,21.86-4.78,30.15,0Z" fill="#fff" stroke="#000" stroke-miterlimit="10"/>
    <g>
      <path d="M207.71,353.49c5.22,3,13.75,3,19,0l211.1-121.88c5.22-3,5.22-7.94,0-11l-9.64-5.57c-5.22-3-13.75-3-19,0L198.07,337c-5.21,3-5.21,7.94,0,10.95Z" fill="none" stroke="#000" stroke-miterlimit="10"/>
      <g>
        <line x1="250.34" y1="311.58" x2="274.81" y2="325.7" fill="#fff" stroke="#000" stroke-miterlimit="10"/>
        <line x1="307.78" y1="278.42" x2="332.24" y2="292.54" fill="#fff" stroke="#000" stroke-miterlimit="10"/>
        <line x1="365.21" y1="245.26" x2="389.67" y2="259.38" fill="#fff" stroke="#000" stroke-miterlimit="10"/>
      </g>
    </g>
    <path d="M685.43,441.66c8.29,4.78,21.86,4.78,30.15,0L911.67,328.44c6.47-3.73,6.47-9.84,0-13.57l-114.84-66.3c-8.29-4.79-21.86-4.79-30.15,0L573.91,359.86c-8.29,4.79-8.29,12.62,0,17.41Z" fill="#fff" stroke="#000" stroke-miterlimit="10"/>
    <g>
      <path d="M538.21,380.47l-127,73.3c-5.07,2.92-7,7-5.91,10.79.71-2.43,2.68-4.76,5.91-6.62l127-73.29a30.39,30.39,0,0,1,14.16-3.57v-4.17A30.51,30.51,0,0,0,538.21,380.47Z" stroke="#000" stroke-miterlimit="10"/>
      <path d="M568.36,384.65,679.88,449c3.23,1.87,5.19,4.19,5.91,6.62,1.12-3.81-.85-7.87-5.91-10.79L568.36,380.47c-4.38-2.52-10.23-3.7-16-3.56v4.17C558.13,380.94,564,382.12,568.36,384.65Z" fill="#fff" stroke="#000" stroke-miterlimit="10"/>
    </g>
    <path d="M364.69,569.37V550.81c0-7.77,5.5-17.3,12.23-21.18l2.79-1.61c10.55-6.09,19.19-1.11,19.19,11.08v22.79c0,10.71,7.57,15.07,16.83,9.69l75-43.56a58.81,58.81,0,0,1,22.58-6.62l20.64-.91a59,59,0,0,0,22.59-6.59l104.41-60.28" fill="none" stroke="#000" stroke-linecap="round" stroke-linejoin="round" stroke-width="7"/>
    <g>
      <path d="M355.12,578.87v24.18c0,3.05,4.29,5.52,9.57,5.52s9.57-2.47,9.57-5.52V578.87Z" stroke="#000" stroke-miterlimit="10"/>
      <path d="M355.12,578.87v24.18c0,3.05,4.29,5.52,9.57,5.52s9.57-2.47,9.57-5.52V578.87Z" fill="none" stroke="#000" stroke-linecap="round" stroke-miterlimit="10"/>
      <ellipse cx="364.69" cy="578.87" rx="9.57" ry="5.53" fill="#403c3c" stroke="#000" stroke-linecap="round" stroke-miterlimit="10"/>
      <g>
        <path d="M360.41,570.38v7.45c0,1.37,1.92,2.47,4.28,2.47s4.28-1.1,4.28-2.47v-7.45Z" stroke="#000" stroke-miterlimit="10"/>
        <path d="M360.41,570.38v7.45c0,1.37,1.92,2.47,4.28,2.47s4.28-1.1,4.28-2.47v-7.45Z" fill="none" stroke="#000" stroke-linecap="round" stroke-miterlimit="10"/>
        <ellipse cx="364.69" cy="570.38" rx="4.28" ry="2.47" stroke="#000" stroke-linecap="round" stroke-miterlimit="10"/>
      </g>
    </g>
    <line x1="584.12" y1="497.95" x2="588.08" y2="495.66" fill="none" stroke="#5ffc3f" stroke-linecap="round" stroke-miterlimit="10" stroke-width="5"/>
    <path d="M364.69,567.91v-17.1c0-7.77,5.5-17.3,12.23-21.18l2.79-1.61c10.55-6.09,19.19-1.11,19.19,11.08v22.79c0,10.71,7.57,15.07,16.83,9.69l65.07-37.81,9.89-5.75a58.81,58.81,0,0,1,22.58-6.62l20.64-.91a59,59,0,0,0,22.59-6.59l19.34-11.17" fill="none" stroke="#5ffc3f" stroke-linecap="round" stroke-miterlimit="10" stroke-width="5"/>
    <path d="M269.4,565.32l102.31-59.07c8.29-4.79,8.29-12.62,0-17.41L229.13,406.52c-8.3-4.79-21.87-4.79-30.16,0L96.66,465.59" fill="none" stroke="#000" stroke-miterlimit="10"/>
    <g>
      <path d="M381.8,594.27v24.18c0,3,4.29,5.53,9.57,5.53s9.57-2.48,9.57-5.53V594.27Z" fill="#fff"/>
      <path d="M389.14,594.27H381.8v24.18c0,2.61,3.13,4.79,7.34,5.37Z" fill="#b8a9a9"/>
      <path d="M381.8,594.27v24.18c0,3,4.29,5.53,9.57,5.53s9.57-2.48,9.57-5.53V594.27Z" fill="none" stroke="#000" stroke-linecap="round" stroke-miterlimit="10"/>
      <ellipse cx="391.37" cy="594.27" rx="9.57" ry="5.53" fill="#fff" stroke="#000" stroke-linecap="round" stroke-miterlimit="10"/>
      <g>
        <path d="M387.09,585.85v7.46c0,1.36,1.92,2.47,4.28,2.47s4.28-1.11,4.28-2.47v-7.46Z" fill="#fff"/>
        <path d="M387.09,585.85v7.46c0,1.36,1.92,2.47,4.28,2.47s4.28-1.11,4.28-2.47v-7.46Z" fill="none" stroke="#000" stroke-linecap="round" stroke-miterlimit="10"/>
        <ellipse cx="391.37" cy="585.85" rx="4.28" ry="2.47" stroke="#000" stroke-linecap="round" stroke-miterlimit="10"/>
      </g>
    </g>
    <path d="M702.17,322.64c-20.8,0-39.65,4.79-53.47,12.54-2.13,1-3.51,2.47-3.51,4.16,0,2.93,4.11,5.3,9.17,5.3a13.3,13.3,0,0,0,6.49-1.55h0c10.57-6.11,25.17-9.88,41.3-9.88,32.26,0,58.41,15.1,58.41,33.72s-26.15,33.73-58.41,33.73c-16.09,0-30.65-3.76-41.22-9.83a13.06,13.06,0,0,0-6.56-1.6c-5.07,0-9.17,2.37-9.17,5.29,0,1.57,1.18,3,3.06,3.94,13.85,7.89,32.88,12.77,53.89,12.77,42.38,0,76.73-19.83,76.73-44.3S744.55,322.64,702.17,322.64Z" fill="#fff" stroke="#000" stroke-miterlimit="10"/>
    <path d="M648.7,335.18c-2.13,1-3.51,2.47-3.51,4.16,0,2.93,4.11,5.3,9.17,5.3a13.3,13.3,0,0,0,6.49-1.55h0c10.57-6.11,25.17-9.88,41.3-9.88a93.93,93.93,0,0,1,26.54,3.69l4.64-10.44a125.78,125.78,0,0,0-31.18-3.83C681.37,322.64,662.52,327.43,648.7,335.18Z" fill="#5ffc3f"/>
    <ellipse cx="338.01" cy="587.64" rx="9.57" ry="5.53" fill="#877777" stroke="#000" stroke-miterlimit="10"/>
    <ellipse cx="338.01" cy="587.64" rx="4.49" ry="2.59"/>
    <ellipse cx="80.37" cy="420.96" rx="18.67" ry="10.78"/>
    <ellipse cx="730.93" cy="332.25" rx="7.62" ry="4.4" fill="#fff" stroke="#000" stroke-linecap="round" stroke-miterlimit="10"/>
    <path d="M702.17,322.64c-20.8,0-39.65,4.79-53.47,12.54-2.13,1-3.51,2.47-3.51,4.16,0,2.93,4.11,5.3,9.17,5.3a13.3,13.3,0,0,0,6.49-1.55h0c10.57-6.11,25.17-9.88,41.3-9.88,32.26,0,58.41,15.1,58.41,33.72s-26.15,33.73-58.41,33.73c-16.09,0-30.65-3.76-41.22-9.83a13.06,13.06,0,0,0-6.56-1.6c-5.07,0-9.17,2.37-9.17,5.29,0,1.57,1.18,3,3.06,3.94,13.85,7.89,32.88,12.77,53.89,12.77,42.38,0,76.73-19.83,76.73-44.3S744.55,322.64,702.17,322.64Z" fill="none" stroke="#000" stroke-miterlimit="10"/>
    <g>
      <path d="M648.7,338.88c13.82-7.75,32.67-12.54,53.47-12.54,41.3,0,75,18.85,76.66,42.45,0-.61.07-1.23.07-1.85,0-24.46-34.35-44.3-76.73-44.3-20.8,0-39.65,4.79-53.47,12.54-2.13,1-3.51,2.47-3.51,4.16a3.43,3.43,0,0,0,.59,1.85A6.78,6.78,0,0,1,648.7,338.88Z" stroke="#000" stroke-miterlimit="10"/>
      <path d="M654.39,392.94a13.06,13.06,0,0,1,6.56,1.6c10.57,6.07,25.13,9.83,41.22,9.83,32.26,0,58.41-15.1,58.41-33.73,0-.62,0-1.23-.09-1.85-1.67,17.77-27.14,31.88-58.32,31.88-16.09,0-30.65-3.76-41.22-9.83a13.06,13.06,0,0,0-6.56-1.6c-5.07,0-9.17,2.37-9.17,5.29a3.35,3.35,0,0,0,.59,1.85C647.11,394.37,650.46,392.94,654.39,392.94Z" stroke="#000" stroke-miterlimit="10"/>
    </g>
    <g>
      <path d="M719.74,301.7v25.41c0,3.57,5,6.46,11.19,6.46s11.18-2.89,11.18-6.46V301.7Z" fill="#fff"/>
      <path d="M719.74,301.7v25.41c0,3.57,5,6.46,11.19,6.46s11.18-2.89,11.18-6.46V301.7Z" stroke="#000" stroke-miterlimit="10" fill="url(#linear-gradient)"/>
      <ellipse cx="730.93" cy="301.7" rx="11.19" ry="6.46" stroke="#000" stroke-linecap="round" stroke-miterlimit="10"/>
    </g>
    <g>
      <path d="M767.51,200.94l-38.35,8.56-79.39-45.84c-8.29-4.79-21.86-4.79-30.15,0L448.73,262.32l104.48,60.32v37.69a30.9,30.9,0,0,0,15.31-3.58L761.29,245.46c4.14-2.4,6.22-5.55,6.22-8.71Z"/>
      <path d="M448.73,262.32l-5.35,3.09-22.75,2v16.23c0,3.16,2.07,6.31,6.22,8.7l111.52,64.39a30.64,30.64,0,0,0,14.84,3.58V322.64Z" fill="#fff"/>
      <rect x="548.77" y="336.13" width="2.12" height="24.21"/>
    </g>
    <path d="M767.51,200.94l-38.35,8.56-79.39-45.84c-8.29-4.79-21.86-4.79-30.15,0L443.38,265.41l-22.75,2v16.23c0,3.16,2.07,6.31,6.22,8.7l111.52,64.39c8.29,4.79,21.86,4.79,30.15,0L761.29,245.46c4.14-2.4,6.22-5.55,6.22-8.71Z" fill="none" stroke="#000" stroke-miterlimit="10"/>
    <path d="M481.94,211.69a38.2,38.2,0,0,1,11.21-10.83l126.47-73c8.29-4.79,21.86-4.79,30.15,0l111.52,64.38c8.29,4.79,8.29,12.62,0,17.41l-126.47,73a38.2,38.2,0,0,0-11.21,10.83l-10.61,17a38.28,38.28,0,0,1-11.21,10.82l-33.27,19.21c-8.29,4.79-21.86,4.79-30.15,0L426.85,276.14c-8.29-4.79-8.29-12.62,0-17.41l33.27-19.21a38.16,38.16,0,0,0,11.2-10.83Z" fill="#fff" stroke="#000" stroke-miterlimit="10"/>
    <line x1="491.29" y1="211.15" x2="616.05" y2="283.18" fill="none" stroke="#000" stroke-miterlimit="10"/>
    <g>
      <path d="M753.12,251.84,740,244.26c-1.76-1-1.92-4-.35-6.76s4.26-4.09,6-3.07L758.8,242Z" fill="#fff" stroke="#000" stroke-linecap="round" stroke-miterlimit="10"/>
      <ellipse cx="755.96" cy="246.93" rx="5.67" ry="3.68" transform="translate(164.13 778.15) rotate(-60)" fill="#fff" stroke="#000" stroke-linecap="round" stroke-miterlimit="10"/>
      <path d="M759,248.71c-.89,1.55-.92,3.19-.07,3.68l-4.6-2.65c-.85-.49-.81-2.14.08-3.68s2.3-2.4,3.15-1.91l4.59,2.65C761.35,246.31,759.94,247.17,759,248.71Z" fill="#fff" stroke="#000" stroke-linecap="round" stroke-miterlimit="10"/>
      <ellipse cx="760.58" cy="249.6" rx="3.23" ry="1.77" transform="translate(164.14 783.49) rotate(-60)" fill="#403c3c" stroke="#000" stroke-linecap="round" stroke-miterlimit="10"/>
    </g>
    <g>
      <path d="M753,199a13.3,13.3,0,0,0-11.8.08L729.57,207l-4.5,1v2.45c0,1.25.82,2.5,2.46,3.45a13.3,13.3,0,0,0,12,0l13.7-7.91c1.64-.95,2.46-2.2,2.46-3.45V200Z" fill="#fff" stroke="#000" stroke-linecap="round" stroke-miterlimit="10"/>
      <path d="M727.53,211.37a13.3,13.3,0,0,0,12,0l13.7-7.91c3.28-1.9,3.28-5,0-6.9a13.24,13.24,0,0,0-11.95,0l-13.7,7.91C724.25,206.36,724.25,209.47,727.53,211.37Z" fill="#fff" stroke="#000" stroke-linecap="round" stroke-miterlimit="10"/>
    </g>
    <path d="M588.62,255.82a11.16,11.16,0,0,0,10,0L705.75,194c2.76-1.6,2.76-4.21,0-5.8l-81.41-47a11.1,11.1,0,0,0-10,0L507.21,203c-2.76,1.6-2.76,4.21,0,5.8Z" fill="#5ffc3f" stroke="#000" stroke-miterlimit="10"/>
    <path d="M603.84,298.89a2.53,2.53,0,0,1-2.53,4.38L483.19,235.08a2.53,2.53,0,0,1,2.53-4.38Z" stroke="#000" stroke-miterlimit="10"/>
    <path d="M391.37,587.62a2.85,2.85,0,0,1-2.85-2.85c0-23.8,12.1-37.06,23.35-39.31,8.86-1.77,16.89,3.18,21,12.93l1.29,3.15c3.3,8.11,6.72,16.49,12.43,18.45,3.18,1.09,7.12.24,12.05-2.61l13.8-8A63.09,63.09,0,0,1,503.92,561h88.43a95.09,95.09,0,0,0,47.47-12.76l275.35-159c8.34-4.81,12.93-11.07,12.93-17.62s-4.59-12.8-12.93-17.62l-137.7-79.5c-7.48-4.32-9.58-9.27-11.43-13.63-1.52-3.58-2.72-6.41-6.88-8.81a2.85,2.85,0,1,1,2.85-4.94c5.81,3.36,7.65,7.7,9.28,11.53s3.2,7.54,9,10.91L918,349.08C928.2,355,933.8,363,933.8,371.63s-5.6,16.69-15.78,22.56l-275.35,159a100.9,100.9,0,0,1-50.32,13.52H503.92a57.41,57.41,0,0,0-28.67,7.66l-13.8,8C455,586,449.53,587,444.7,585.38c-8.16-2.8-12.07-12.4-15.86-21.69-.42-1-.84-2.08-1.27-3.1-3.05-7.31-8.36-10.79-14.59-9.54-9.32,1.86-18.76,14.05-18.76,33.72A2.84,2.84,0,0,1,391.37,587.62Z" fill="#fff" stroke="#000" stroke-miterlimit="10"/>
    <g>
      <path d="M538.51,204c4.45-1.7,8.75-2.87,12.8-.51,3.83,2.22,3,5.17-.87,7.64l2.43,1.41-1.73,1-2.45-1.43c-5,2.54-9.9,2.74-13.87.57l3.91-2.26a7.56,7.56,0,0,0,6.79-.15l-5.42-3.15-.17.07c-4.31,1.56-8.49,2.88-12.57.51-3.69-2.14-2.78-4.94,1-7.38l-1.69-1,1.73-1,1.71,1a14.11,14.11,0,0,1,12.59-.26l-3.81,2.2a7.17,7.17,0,0,0-5.55-.06l4.93,2.87Zm8.73,5.28c1.5-1.06,2.1-2.28.54-3.19s-3.15-.53-5.53.28l5,2.91m-11-4.42-4.65-2.7c-1.64,1.15-1.91,2.26-.65,3s2.8.56,5.3-.29"/>
      <path d="M546.12,190.1c5.23-3,11.44-2.8,18.06,1.05,6.25,3.63,8.38,7.3,2.6,10.63a13.53,13.53,0,0,1-12,1l3.79-2.19a6.24,6.24,0,0,0,5.13-.48c1.23-.72,1.79-1.46,1.61-2.36s-1.36-2.19-3.35-3.38l-.06,0c.17,1.3-.27,2.64-2.43,3.88a14.52,14.52,0,0,1-13.91.07C541.53,196,541.9,192.54,546.12,190.1Zm10.76,6.05c2.24-1.29,2.48-3.15.23-4.46a8.2,8.2,0,0,0-7.74.07c-2.26,1.31-2.25,3.18-.13,4.41a7.74,7.74,0,0,0,7.64,0"/>
      <path d="M562.87,180.43a13.47,13.47,0,0,1,12.94-.23c3.68,2.14,2.89,4.61,2.08,6.93-.55,1.45-1.08,3.2-.49,4.31l9.08-5.24,3.2,1.86-14.13,8.16c-3.6-2.26-3.53-4.94-3-7.24.53-2.56,1.86-4.92-.65-6.37a5.75,5.75,0,0,0-5.79-.2c-2,1.14-1.73,2.65.75,4.16l-3.68,2.12C558.71,186.1,558.19,183.14,562.87,180.43Z"/>
      <path d="M579.65,170.71c5.08-2.93,12.12-2.43,18.39,1.22s7.12,7.72,2,10.67-12.22,2.43-18.44-1.19S574.65,173.6,579.65,170.71Zm17.12,9.95c2.93-1.69,1.39-3.94-2.8-6.38s-8.11-3.32-11-1.64-1.43,4,2.74,6.42,8.14,3.29,11.07,1.6"/>
      <path d="M597.8,160.23c5.08-2.93,12.12-2.43,18.4,1.21s7.11,7.73,2,10.68-12.21,2.42-18.43-1.19S592.8,163.12,597.8,160.23Zm17.12,10c2.93-1.69,1.4-4-2.8-6.38s-8.11-3.32-11-1.64-1.42,4,2.74,6.41,8.14,3.3,11.07,1.61"/>
    </g>
    <path d="M422,331.25l-31.19,111L538.67,356.9V340.67l49.53-28.6c10.63-6.13,13-11.48,13-11.48L534.56,262.1Z"/>
    <line x1="426.85" y1="292.36" x2="536.88" y2="355.89" fill="none" stroke="#877777" stroke-linecap="round" stroke-miterlimit="10"/>
    <line x1="538.37" y1="340.52" x2="426.85" y2="276.14" fill="#fff" stroke="#877777" stroke-linecap="round" stroke-miterlimit="10"/>
    <g>
      <path d="M675.84,364l26.46,15.38L697,382.42l-18.33-10.66-6,3.46-3.46-2c3.13-1.94,4.83-4.3,2-6.57Z"/>
      <path d="M698.65,351l4.33,2.52-11.92,6.88,4.67,3.88c.24-1.29,1.48-2.76,3.92-4.16a19.34,19.34,0,0,1,18.11.15c5.49,3.19,4.89,8-.91,11.33S703.63,375.7,698,373l5.18-3a10.52,10.52,0,0,0,9.16-.89c3-1.74,2.77-4.08,0-5.71a9.89,9.89,0,0,0-9.73,0c-2,1.16-2.79,2.49-2.68,3.45l-5,2.92L683.06,360Z"/>
      <g>
        <path d="M725.87,352.63c2.48,1.44,2.59,3.23.47,4.45a8,8,0,0,1-7.7-.27c-2.49-1.45-2.54-3.27-.47-4.47A7.89,7.89,0,0,1,725.87,352.63Zm-1.11,3.54c1-.56.4-1.42-1.07-2.28s-3-1.2-4-.65-.37,1.43,1.12,2.29,2.95,1.19,3.91.64"/>
        <polygon points="725.82 348.26 727.57 347.25 734.37 359.58 732.63 360.59 725.82 348.26"/>
        <path d="M733.89,350.78a7.85,7.85,0,0,1,7.69.3c2.48,1.44,2.6,3.22.48,4.44a8,8,0,0,1-7.71-.27C731.86,353.8,731.81,352,733.89,350.78Zm6.59,3.83c1-.56.39-1.42-1.08-2.27s-3-1.21-3.95-.66-.38,1.43,1.11,2.3,3,1.19,3.92.63"/>
      </g>
    </g>
    <g>
      <g>
        <path d="M217.84,340.29a3.73,3.73,0,0,1,2.92.24c.63.37.87.73.81,1.16s-.45.88-1.17,1.3l-3.11,1.79-6.73-3.91,3-1.75a4.64,4.64,0,0,1,2.13-.66,3.23,3.23,0,0,1,1.8.42c.69.4.7.9.29,1.39Zm1.28,2.13c.66-.38.69-.83.15-1.15a2.07,2.07,0,0,0-2.07.08l-1.55.89,1.88,1.09,1.59-.91m-6.08-1.7,1.6.93,1.49-.86c.6-.34.72-.74.2-1.05a1.77,1.77,0,0,0-1.77.11l-1.52.87"/>
        <path d="M227.1,338.29a1.72,1.72,0,0,0,.85.29l0,0-1.24.72a2.45,2.45,0,0,1-.69-.22h0c.12.35.05.72-.78,1.2a3.16,3.16,0,0,1-3.17.12c-1.07-.62-.54-1.32.39-2,.7-.53,1-.78.63-1a1.38,1.38,0,0,0-1.39.13c-.6.35-.68.65-.26.94l-1.14.66c-.81-.51-.92-1.31.5-2.13a3.54,3.54,0,0,1,3.83-.15Zm-2.2.12-.72-.42a2.91,2.91,0,0,1-.62.69c-.52.47-.7.75-.25,1a1.29,1.29,0,0,0,1.37-.08c.74-.43.69-.92.22-1.2"/>
        <polygon points="223.5 333.4 230.23 337.31 228.94 338.06 222.21 334.14 223.5 333.4"/>
        <path d="M234.78,333.85a1.51,1.51,0,0,0,.84.29l0,0-1.24.72a2.41,2.41,0,0,1-.69-.23h0c.12.36.05.73-.78,1.21a3.2,3.2,0,0,1-3.18.12c-1.06-.62-.53-1.32.4-2,.69-.53,1-.78.63-1a1.4,1.4,0,0,0-1.39.14c-.6.35-.68.65-.26.94l-1.15.66c-.8-.52-.91-1.31.51-2.14a3.54,3.54,0,0,1,3.82-.14Zm-2.2.13-.72-.42a3.13,3.13,0,0,1-.62.68c-.53.48-.71.76-.26,1a1.32,1.32,0,0,0,1.38-.08c.74-.43.69-.93.22-1.2"/>
        <path d="M234.37,329.18a3.62,3.62,0,0,1,3.48.08l3.15,1.83-1.28.74-3-1.72a1.75,1.75,0,0,0-1.73,0c-.57.33-.53.84.13,1.22l2.74,1.59-1.29.74-4.83-2.8,1.26-.73.66.38h0C233.53,330,233.7,329.56,234.37,329.18Z"/>
        <path d="M239.31,326.32a4.52,4.52,0,0,1,4-.25l-1.26.73a2,2,0,0,0-1.63.08c-.78.45-.59,1,.35,1.57a2.67,2.67,0,0,0,2.68.22c.52-.3.62-.68.16-1l1.24-.72c.94.65.95,1.59-.35,2.34a5.24,5.24,0,0,1-5-.05C238,328.37,237.83,327.17,239.31,326.32Z"/>
        <path d="M248.8,325.61c.5-.29.57-.59.35-.89l1.27-.73c.68.6.63,1.46-.62,2.19a5.19,5.19,0,0,1-5.08,0c-1.43-.83-1.57-2-.15-2.86a5.34,5.34,0,0,1,5.31.31l-3.52,2A2.63,2.63,0,0,0,248.8,325.61Zm-3.22-1.77c-.68.4-.61.83-.09,1.26l2.16-1.25a2.29,2.29,0,0,0-2.07,0"/>
      </g>
      <g>
        <polygon points="274.56 304.82 281.29 308.74 279.92 309.53 273.19 305.62 274.56 304.82"/>
        <path d="M280.29,303.56a3.61,3.61,0,0,1,3.49.09l3.15,1.83-1.29.74-3-1.72a1.75,1.75,0,0,0-1.73,0c-.57.33-.54.83.12,1.22l2.74,1.59-1.29.74-4.83-2.8,1.27-.73.65.38h0C279.46,304.36,279.63,304,280.29,303.56Z"/>
        <path d="M287.31,299.67l3.13,3.79-1.23.71-6.52-1.84,1.31-.75,3.28,1c.6.19,1,.32,1,.33h0s-.25-.22-.57-.57l-1.7-1.92Z"/>
        <path d="M294.14,300.34c.5-.29.57-.59.34-.89l1.28-.73c.67.6.63,1.46-.62,2.19a5.19,5.19,0,0,1-5.08,0c-1.43-.83-1.57-2-.15-2.86a5.34,5.34,0,0,1,5.31.31l-3.53,2A2.65,2.65,0,0,0,294.14,300.34Zm-3.22-1.77c-.68.4-.61.82-.09,1.26l2.16-1.25a2.26,2.26,0,0,0-2.07,0"/>
        <path d="M295,295.07a3.93,3.93,0,0,1,3.69-.28l-1.17.68a1.64,1.64,0,0,0-1.64.13c-.51.29-.65.59-.3.79s1.1-.11,1.93-.43a3.58,3.58,0,0,1,3.24-.1c1,.56.72,1.38-.49,2.08a4.2,4.2,0,0,1-4,.33l1.19-.69a2,2,0,0,0,1.86-.15c.57-.33.68-.64.34-.84s-1.13.06-1.92.37a3.54,3.54,0,0,1-3.18.15C293.53,296.5,293.9,295.71,295,295.07Z"/>
        <path d="M298.25,291.6l1.51.88.84-.48.84.49-.83.48,2.56,1.49a.9.9,0,0,0,1,0l.37-.23.94.55s-.27.18-.78.48a2.42,2.42,0,0,1-2.48.08l-2.83-1.64-.68.39-.84-.5.67-.38-1.51-.88Z"/>
      </g>
      <g>
        <path d="M341.83,269.52a3.76,3.76,0,0,1,2.93.24c.63.37.87.73.81,1.16s-.45.88-1.17,1.3L341.29,274l-6.73-3.91,3-1.75a4.64,4.64,0,0,1,2.13-.66,3.15,3.15,0,0,1,1.8.42c.69.4.7.9.28,1.39Zm1.29,2.13c.66-.38.69-.83.15-1.15a2.07,2.07,0,0,0-2.07.08l-1.55.89,1.88,1.09,1.59-.91M337,270l1.6.93,1.49-.86c.6-.34.72-.74.2-1a1.77,1.77,0,0,0-1.77.11L337,270"/>
        <path d="M347.17,265l4.83,2.81-1.24.72-.57-.33h0c.12.45,0,.82-.69,1.21a3.37,3.37,0,0,1-3.43,0l-3.22-1.87,1.28-.74,3,1.75a1.57,1.57,0,0,0,1.68,0c.61-.35.53-.82-.11-1.19l-2.79-1.63Z"/>
        <path d="M352.56,261.91l3.26,3.86c.7.83.73,1.26-.26,1.83l-.75.44-1-.58.45-.27c.51-.29.46-.57.06-.8a7.88,7.88,0,0,0-1.68-.54l-4.74-1.25,1.36-.78,2.89.85c.6.17,1.33.42,1.37.43h0a7.87,7.87,0,0,1-.77-.78l-1.49-1.65Z"/>
      </g>
    </g>
    <g style="isolation: isolate">
      <path d="M567.83,300.94a48.13,48.13,0,0,1-9-4.13L445,230.66a48.08,48.08,0,0,0,9,4.13,45.65,45.65,0,0,0,14.75,2.28,69.29,69.29,0,0,0,18.72-2.9L601.3,300.32a69.36,69.36,0,0,1-18.73,2.9A45.55,45.55,0,0,1,567.83,300.94Z" fill="#5ffc3f"/>
      <path d="M548.36,269.91l-3.14,4.64a8.29,8.29,0,0,1-8.52,3.1l-26-7.39" fill="none" stroke="#000" stroke-miterlimit="10"/>
      <g>
        <path d="M585,292.81a66.46,66.46,0,0,1-16.36,2.26,45.65,45.65,0,0,1-14.75-2.28" fill="none" stroke="#fff" stroke-miterlimit="10"/>
        <path d="M459.47,239a48.11,48.11,0,0,0,9,4.12,45.55,45.55,0,0,0,14.74,2.28,66.47,66.47,0,0,0,16.41-2.27" fill="none" stroke="#fff" stroke-miterlimit="10"/>
      </g>
      <path d="M558.73,296.88,444.91,230.73a92,92,0,0,1-13.53-10,9.29,9.29,0,0,0-1.44-1l113.82,66.14a10.32,10.32,0,0,1,1.45,1A90.69,90.69,0,0,0,558.73,296.88Z"/>
      <path d="M430,219.61a10.72,10.72,0,0,0-8.6-.72,19.42,19.42,0,0,0-4.29,1.87,28.94,28.94,0,0,0-6.55,5.27,36.73,36.73,0,0,0-7.49,11.85,30.93,30.93,0,0,0-2,14.46l3.12,28.31a32.26,32.26,0,0,1-1.45,14,30.78,30.78,0,0,1-6.09,10.5,27.13,27.13,0,0,1-6.66,5.5,20.15,20.15,0,0,1-3.2,1.51c-3.38,1.24-6.42,1.22-8.59,0L492,378.28c2.16,1.26,5.21,1.28,8.59,0a20.57,20.57,0,0,0,3.2-1.51,27.51,27.51,0,0,0,6.65-5.5,30.8,30.8,0,0,0,6.1-10.5,32.26,32.26,0,0,0,1.44-14l-3.12-28.31a30.93,30.93,0,0,1,2-14.46,36.91,36.91,0,0,1,7.5-11.86,29.12,29.12,0,0,1,6.54-5.26,19.54,19.54,0,0,1,4.3-1.88,10.77,10.77,0,0,1,8.6.72Z" fill="#5ffc3f"/>
      <path d="M470.65,283.18l-4.37-10.08c-1.8-4.16.43-7.82,5-8.13l7.25-.5a7.92,7.92,0,0,0,6.25-4.62l.43-1.13a10.79,10.79,0,0,1,4-4.71" fill="none" stroke="#000" stroke-miterlimit="10"/>
      <path d="M439.58,226.69a13.36,13.36,0,0,0-3.7.56,19.48,19.48,0,0,0-4.3,1.87,29.18,29.18,0,0,0-6.54,5.27,36.69,36.69,0,0,0-7.5,11.86,30.89,30.89,0,0,0-2,14.46l3.12,28.3a32.26,32.26,0,0,1-1.44,14,30.94,30.94,0,0,1-6.1,10.51,27.51,27.51,0,0,1-6.65,5.5,20.5,20.5,0,0,1-3.2,1.5c-3.38,1.25-6.43,1.23-8.59,0l85.41,49.63c2.17,1.26,5.21,1.28,8.59,0a20.15,20.15,0,0,0,3.2-1.51,27.31,27.31,0,0,0,6.66-5.49,30.92,30.92,0,0,0,6.09-10.51,32.26,32.26,0,0,0,1.45-14l-3.12-28.31a30.87,30.87,0,0,1,2-14.45A36.67,36.67,0,0,1,510.45,284a28.94,28.94,0,0,1,6.55-5.27,19.28,19.28,0,0,1,4.3-1.87,13,13,0,0,1,3.69-.56" fill="none" stroke="#fff" stroke-miterlimit="10"/>
      <path d="M501.37,330.69c2.87-8.17,4.11-15.15,3.68-20.76-.37-4.93-2.06-8.66-4.89-10.79a10.15,10.15,0,0,0-1-.64L385.36,232.35a10.39,10.39,0,0,1,1,.65c2.82,2.12,4.52,5.85,4.89,10.78.43,5.61-.82,12.6-3.69,20.76L376.49,296c-1.49,4.24-2.05,7.85-1.68,10.68a7.19,7.19,0,0,0,3.21,5.49l.09.06,113.83,66.15-.1-.06a7.2,7.2,0,0,1-3.2-5.49c-.38-2.84.19-6.44,1.68-10.68Z"/>
      <line x1="378.11" y1="312.22" x2="486.34" y2="375.13" fill="#fff" stroke="#877777" stroke-linecap="round" stroke-miterlimit="10"/>
      <path d="M385.43,232.27a11.89,11.89,0,0,0-8.92-.94,21.39,21.39,0,0,0-5.6,2.3,30.62,30.62,0,0,0-5.88,4.49A43.76,43.76,0,0,0,355.58,252a58.55,58.55,0,0,0-4.65,20.46c-.07,1.42-.13,2.89-.2,4.31a168.52,168.52,0,0,1-1.82,20.77A77.33,77.33,0,0,1,341.69,320a89.13,89.13,0,0,1-17.94,23.73A141.84,141.84,0,0,1,309.09,356a210.26,210.26,0,0,1-19.33,12.53l-47.94,27.76L355.64,462.4l47.94-27.75a211.21,211.21,0,0,0,19.34-12.53,141.68,141.68,0,0,0,14.65-12.29,88.86,88.86,0,0,0,17.94-23.73,76.73,76.73,0,0,0,7.22-22.37A168.76,168.76,0,0,0,464.56,343c.06-1.42.13-2.89.2-4.32a58.06,58.06,0,0,1,4.65-20.45,43.74,43.74,0,0,1,9.44-13.92,31,31,0,0,1,5.89-4.49,21.19,21.19,0,0,1,5.59-2.3,11.88,11.88,0,0,1,8.92.94Z" fill="#5ffc3f"/>
      <line x1="543.82" y1="285.75" x2="429.99" y2="219.61" fill="none" stroke="#000" stroke-miterlimit="10"/>
      <line x1="499.25" y1="298.42" x2="385.43" y2="232.27" fill="none" stroke="#000" stroke-miterlimit="10"/>
      <path d="M393.57,239.29a15.33,15.33,0,0,0-2.58.41A21.15,21.15,0,0,0,385.4,242a30.65,30.65,0,0,0-5.89,4.5,43.69,43.69,0,0,0-9.44,13.91,58.16,58.16,0,0,0-4.65,20.46c-.07,1.42-.14,2.89-.2,4.32A168.93,168.93,0,0,1,363.39,306a76.57,76.57,0,0,1-7.22,22.36A88.55,88.55,0,0,1,338.23,352a140.44,140.44,0,0,1-14.65,12.29,209.12,209.12,0,0,1-19.34,12.53L269,397.26l85.42,49.64,35.22-20.4A210.26,210.26,0,0,0,409,414a141.84,141.84,0,0,0,14.66-12.29A89.13,89.13,0,0,0,441.59,378a77.24,77.24,0,0,0,7.22-22.37,168.53,168.53,0,0,0,1.82-20.76c.07-1.43.13-2.9.2-4.32A58.55,58.55,0,0,1,455.48,310a43.71,43.71,0,0,1,9.45-13.91,30.29,30.29,0,0,1,5.88-4.5,21.35,21.35,0,0,1,5.6-2.29,14.79,14.79,0,0,1,3.53-.45" fill="none" stroke="#fff" stroke-miterlimit="10"/>
      <path d="M355.64,462.4l47.94-27.75a211.21,211.21,0,0,0,19.34-12.53,141.68,141.68,0,0,0,14.65-12.29,88.86,88.86,0,0,0,17.94-23.73,76.73,76.73,0,0,0,7.22-22.37A168.76,168.76,0,0,0,464.56,343c.06-1.42.13-2.89.2-4.32a58.06,58.06,0,0,1,4.65-20.45,43.74,43.74,0,0,1,9.44-13.92,31,31,0,0,1,5.89-4.49,21.19,21.19,0,0,1,5.59-2.3c3.86-.93,7.27-.38,9.89,1.58,2.83,2.14,4.53,5.88,4.9,10.82.43,5.63-.82,12.63-3.69,20.81l-11.05,31.45c-1.49,4.23-2.05,7.81-1.67,10.64a7.12,7.12,0,0,0,3.18,5.45c2.18,1.31,5.26,1.35,8.68.09a20.57,20.57,0,0,0,3.2-1.51,27.51,27.51,0,0,0,6.65-5.5,30.8,30.8,0,0,0,6.1-10.5,32.26,32.26,0,0,0,1.44-14l-3.12-28.31a30.93,30.93,0,0,1,2-14.46,36.91,36.91,0,0,1,7.5-11.86,29.12,29.12,0,0,1,6.54-5.26,19.54,19.54,0,0,1,4.3-1.88c3.91-1.13,7.39-.53,10,1.75,6.13,5.25,13.43,11.11,22.57,14.16a45.55,45.55,0,0,0,14.74,2.28,69.36,69.36,0,0,0,18.73-2.9" fill="none" stroke="#000" stroke-miterlimit="10"/>
      <path d="M326.81,430.84l4.27-4,14-7.47a11.82,11.82,0,0,0,5.22-14.67L344.14,390c-2.24-5.34.65-10.13,6.42-10.63l17.93-1.58a15.2,15.2,0,0,0,12.72-11.22l1-4.41a13,13,0,0,1,12.74-9.85l25.9,1.11c8.24.35,11.14-4.91,6.44-11.68l-20.41-29.47c-3.3-4.77-1.45-10,4.12-11.58l11-3.17c5.57-1.6,7.87-7.09,5.12-12.19l-8.15-15.1c-3.51-6.51.35-13.22,7.49-11.31l9.05,2.42" fill="none" stroke="#000" stroke-miterlimit="10"/>
      <ellipse cx="405.93" cy="305.36" rx="2.8" ry="3.06"/>
    </g>
    <g>
      <path d="M224.8,514.06c4.47,2.58,11.77,2.58,16.24,0l61.13-35.3c4.47-2.57,4.47-6.79,0-9.37l-8.25-4.77c-4.47-2.57-11.77-2.57-16.24,0l-61.13,35.3c-4.47,2.58-4.47,6.8,0,9.37Z" fill="#fff" stroke="#000" stroke-linecap="round" stroke-linejoin="round"/>
      <path d="M305.37,467.28l-6.34.3-5.11-3c-4.47-2.57-11.77-2.57-16.24,0L247.53,482,272,496.17l30.15-17.41c2.23-1.29,3.35-3,3.35-4.68Z" stroke="#000" stroke-linecap="round" stroke-linejoin="round"/>
      <path d="M272,496.17l30.15-23.46c4.27-3,4.27-7.73,0-10.19l-8.25-4.77c-4.47-2.57-12.17-2.35-16.24.82L247.53,482Z" fill="#fff" stroke="#000" stroke-linecap="round" stroke-linejoin="round"/>
    </g>
    <g>
      <path d="M189,493.36c4.47,2.58,11.78,2.58,16.24,0l61.14-35.29c4.46-2.58,4.46-6.8,0-9.38l-8.26-4.76c-4.46-2.58-11.77-2.58-16.24,0L180.7,479.22c-4.46,2.58-4.46,6.8,0,9.38Z" fill="#fff" stroke="#000" stroke-linecap="round" stroke-linejoin="round"/>
      <path d="M269.52,446.59l-6.34.29-5.11-2.95c-4.46-2.58-11.77-2.58-16.24,0l-30.14,17.4,24.49,14.14,30.15-17.4c2.23-1.29,3.34-3,3.34-4.69Z" stroke="#000" stroke-linecap="round" stroke-linejoin="round"/>
      <path d="M236.18,475.47,266.33,452c4.26-3.05,4.26-7.72,0-10.18l-8.26-4.77c-4.46-2.58-12.17-2.35-16.24.81l-30.14,23.46Z" fill="#fff" stroke="#000" stroke-linecap="round" stroke-linejoin="round"/>
    </g>
    <g>
      <path d="M260.65,534.75c4.46,2.58,11.77,2.58,16.23,0L338,499.46c4.46-2.58,4.46-6.8,0-9.38l-8.26-4.76c-4.46-2.58-11.77-2.58-16.23,0l-61.14,35.3c-4.46,2.57-4.46,6.79,0,9.37Z" fill="#fff" stroke="#000" stroke-linecap="round" stroke-linejoin="round"/>
      <path d="M341.21,488l-6.33.29-5.12-2.95c-4.46-2.58-11.77-2.58-16.23,0l-30.15,17.4,24.49,14.14L338,499.46c2.23-1.29,3.35-3,3.35-4.69Z" stroke="#000" stroke-linecap="round" stroke-linejoin="round"/>
      <path d="M307.87,516.86,338,493.4c4.26-3,4.26-7.72,0-10.18l-8.26-4.77c-4.46-2.58-12.17-2.35-16.23.81l-30.15,23.46Z" fill="#fff" stroke="#000" stroke-linecap="round" stroke-linejoin="round"/>
    </g>
    <g>
      <path d="M231.24,437.81c4.47-2.57,4.47-6.79,0-9.37L223,423.67c-4.46-2.57-11.77-2.57-16.24,0l-56,32.34h-8.58l.1,7.7h0c0,1.68,1.14,3.36,3.35,4.63l8.25,4.77c4.47,2.58,11.78,2.58,16.24,0Z" fill="#fff" stroke="#000" stroke-linecap="round" stroke-linejoin="round"/>
      <path d="M212.38,426.24a1.63,1.63,0,0,0,.26,2.82l10.09,5.82a3.74,3.74,0,0,0,3.88-.28,1.45,1.45,0,0,0-.18-2.58l-10.57-6.1A3.26,3.26,0,0,0,212.38,426.24Z" fill="#5ffc3f"/>
      <line x1="160.91" y1="467.31" x2="160.91" y2="474.95" stroke="#000" stroke-linecap="round" stroke-linejoin="round"/>
      <path d="M170.11,473.11l31-17.89h0l-37.26,1.21V475A15.47,15.47,0,0,0,170.11,473.11Z" stroke="#000" stroke-linecap="round" stroke-linejoin="round"/>
      <path d="M153.87,464.85c4.47,2.57,11.41,3.75,16.24,1.94l31-11.57-24.49-14.14-31,11.57c-5.15,1.93-4,5.11,0,7.43Z" fill="#fff" stroke="#000" stroke-linecap="round" stroke-linejoin="round"/>
    </g>
  </g>
</svg>
