<svg width="125" height="36" xmlns="http://www.w3.org/2000/svg" fill="none" color="#333"><path fill-rule="evenodd" clip-rule="evenodd" d="M12.913.802c2.493 2.492 5.011 5.61 7.803 7.755 1.248.957 2.66 1.415 4.525.439.022.012.024-.141 0 0l-4.156 4.155a3.45 3.45 0 01-4.866 0L8.667 5.598C5.638 2.57 10.292-1.82 12.913.802zM24.19.544a3.737 3.737 0 10-.004 7.474A3.737 3.737 0 0024.19.544zm-1.497 34.259c-2.493-2.492-5.01-5.612-7.805-7.753-1.246-.958-2.657-1.417-4.523-.44-.021 0-.023.143 0 0l4.156-4.156a3.449 3.449 0 014.864 0l7.563 7.553c3.028 3.03-1.626 7.418-4.247 4.796h-.008zm-11.278.258a3.735 3.735 0 100-7.47 3.735 3.735 0 000 7.47zM34.803 12.92c-2.494 2.492-5.61 5.01-7.755 7.8-.958 1.248-1.415 2.66-.438 4.525-.01.021.142.023 0 0l-4.158-4.156a3.453 3.453 0 010-4.864l7.555-7.553c3.028-3.03 7.418 1.626 4.796 4.247zm.258 11.275a3.736 3.736 0 10-.283 1.426 3.74 3.74 0 00.283-1.43v.004zM.802 22.692c2.492-2.492 5.61-5.01 7.753-7.803.959-1.248 1.417-2.659.44-4.524.01-.022-.142-.022 0 0l4.156 4.155a3.451 3.451 0 010 4.866l-7.553 7.553c-3.03 3.028-7.417-1.625-4.796-4.247zM.554 11.416a3.735 3.735 0 107.47-.004 3.735 3.735 0 00-7.47.004z" fill="#333"/><path d="M43.311 21.192a.992.992 0 01-.992-.992V7.164a.962.962 0 01.616-.934.992.992 0 01.384-.068h8.704a.992.992 0 01.713.26.91.91 0 01.27.684.862.862 0 01-.27.655 1.006 1.006 0 01-.713.25h-7.71v4.67h5.525a.992.992 0 01.715.26.958.958 0 010 1.33.99.99 0 01-.715.26h-5.524v5.66a.992.992 0 01-1.003.993v.008zm23.42.192a8.192 8.192 0 01-3.1-.567 7.05 7.05 0 01-2.416-1.588 7.268 7.268 0 01-1.57-2.447 8.93 8.93 0 010-6.209 7.293 7.293 0 011.57-2.435 7.056 7.056 0 012.417-1.6 8.722 8.722 0 016.19 0 7.112 7.112 0 013.996 4.035 8.93 8.93 0 010 6.21 7.075 7.075 0 01-3.997 4.044 8.12 8.12 0 01-3.09.557zm0-1.81a5.755 5.755 0 002.302-.452 5.508 5.508 0 003.003-3.13 6.747 6.747 0 000-4.659 5.534 5.534 0 00-1.19-1.877 5.436 5.436 0 00-1.819-1.243 6.204 6.204 0 00-4.602 0 5.348 5.348 0 00-1.81 1.243 5.72 5.72 0 00-1.19 1.877 6.602 6.602 0 000 4.66 5.68 5.68 0 001.19 1.877 5.41 5.41 0 001.81 1.252c.73.308 1.515.462 2.306.453zm15.989 1.618a.94.94 0 01-.704-.288.99.99 0 01-.278-.712V7.164a.965.965 0 01.287-.713.948.948 0 01.695-.29.992.992 0 01.992.993V19.19h6.971a1.001 1.001 0 110 2.002H82.72zm16.604 0a.993.993 0 01-.705-.288.955.955 0 01-.297-.712V7.164a.95.95 0 01.297-.713.993.993 0 011.406.001.989.989 0 01.291.702v5.777l6.382-6.362c.121-.13.264-.238.423-.318a.993.993 0 01.397-.087.79.79 0 01.692.29.891.891 0 01.155.682 1.322 1.322 0 01-.365.722l-4.912 4.93 5.023 6.806a1 1 0 01.198.703 1.093 1.093 0 01-.269.635.777.777 0 01-.616.26.943.943 0 01-.827-.423l-4.872-6.604-1.389 1.39v4.64a.993.993 0 01-.992.993l-.02.004zm20.261.192A7.174 7.174 0 01117.24 21a6.055 6.055 0 01-1.945-1.077 4.227 4.227 0 01-1.213-1.6.759.759 0 010-.75 1.061 1.061 0 011.368-.337c.224.123.403.316.51.55.179.35.44.654.76.885.387.287.82.508 1.28.654a4.971 4.971 0 001.587.25 4.874 4.874 0 001.705-.287 3.041 3.041 0 001.26-.838c.325-.376.498-.861.482-1.359a2.543 2.543 0 00-.209-.995 2.545 2.545 0 00-.585-.833c-.529-.54-1.405-.87-2.627-.992-1.588-.152-2.839-.62-3.755-1.405a3.681 3.681 0 01-1.375-2.923 3.323 3.323 0 01.713-2.157 4.402 4.402 0 011.934-1.348 7.624 7.624 0 012.725-.464 5.847 5.847 0 012.05.328 4.86 4.86 0 011.532.904c.445.397.828.858 1.135 1.368.166.23.245.51.222.794a.787.787 0 01-.375.595.903.903 0 01-.794.097 1.079 1.079 0 01-.635-.5 3.436 3.436 0 00-.752-.945 3.367 3.367 0 00-1.039-.607 4.052 4.052 0 00-1.405-.22 4.605 4.605 0 00-2.382.53 1.812 1.812 0 00-.964 1.684c.001.39.105.771.299 1.108.265.41.647.729 1.098.915.529.256 1.296.436 2.3.538 1.528.154 2.718.617 3.572 1.389.853.77 1.28 1.794 1.282 3.07a3.85 3.85 0 01-.453 1.907c-.299.537-.714 1-1.214 1.357a5.36 5.36 0 01-1.727.83 7.47 7.47 0 01-2.02.27zm-77.288 9.593a.317.317 0 01-.316-.317v-5.721a.312.312 0 01.09-.229.306.306 0 01.226-.089h3.816a.315.315 0 01.228.085.296.296 0 01.09.225.293.293 0 01-.09.212.307.307 0 01-.228.09h-3.489v2.244h2.548a.308.308 0 01.318.31.312.312 0 01-.195.288.305.305 0 01-.123.02h-2.547v2.563a.31.31 0 01-.09.224.297.297 0 01-.238.095zm13.139 0a.305.305 0 01-.316-.317v-5.721a.311.311 0 01.09-.228.334.334 0 01.454 0 .314.314 0 01.09.228v5.72a.306.306 0 01-.318.317v.002zm9.812 0a.306.306 0 01-.318-.317v-5.721a.31.31 0 01.09-.229.308.308 0 01.228-.083.298.298 0 01.242.115l3.89 5.108v-4.91a.306.306 0 01.317-.318.316.316 0 01.294.194.307.307 0 01.023.124v5.719a.302.302 0 01-.093.228.316.316 0 01-.224.09.38.38 0 01-.131-.024.234.234 0 01-.106-.082l-3.895-5.11v4.898a.296.296 0 01-.093.228.31.31 0 01-.224.091zm13.595.001a.278.278 0 01-.268-.155.321.321 0 01-.016-.3l2.381-5.68a.314.314 0 01.31-.22.307.307 0 01.3.22l2.4 5.688a.291.291 0 01-.019.3.295.295 0 01-.266.147.33.33 0 01-.175-.048.353.353 0 01-.125-.147l-2.238-5.427h.252l-2.24 5.423a.315.315 0 01-.296.199zm.538-1.513l.244-.545h3.302l.244.545h-3.79zm13.398 1.512a.306.306 0 01-.317-.317v-5.721a.31.31 0 01.089-.229.326.326 0 01.472.026l3.89 5.108V24.94a.31.31 0 01.193-.297.304.304 0 01.122-.021.31.31 0 01.224.09.3.3 0 01.094.228v5.719a.297.297 0 01-.094.228.31.31 0 01-.224.09.376.376 0 01-.129-.025.228.228 0 01-.107-.08l-3.895-5.11v4.897a.298.298 0 01-.096.228.307.307 0 01-.222.091zm16.801.08a3.024 3.024 0 01-1.234-.252 3.169 3.169 0 01-1.008-.703 3.327 3.327 0 01-.679-1.041 3.404 3.404 0 010-2.523 3.248 3.248 0 011.683-1.742c.391-.172.815-.26 1.242-.256a3.19 3.19 0 011.066.17c.339.126.653.311.927.546a.201.201 0 01.057.059.234.234 0 01.008.221.196.196 0 01-.097.104.143.143 0 01-.03.057.143.143 0 01-.051.04.27.27 0 01-.151.024.311.311 0 01-.167-.074 2.16 2.16 0 00-.692-.41 2.58 2.58 0 00-.87-.134 2.33 2.33 0 00-.992.21 2.62 2.62 0 00-.81.578 2.71 2.71 0 000 3.743c.23.243.505.438.81.573.313.137.651.205.992.199.289.001.575-.049.846-.147.272-.1.527-.244.756-.423a.264.264 0 01.198-.065c.075.01.145.043.199.097a.28.28 0 01.081.212.312.312 0 01-.02.117.371.371 0 01-.069.112 2.407 2.407 0 01-.927.54c-.345.11-.705.167-1.068.168zm11.283-.08a.304.304 0 01-.296-.194.29.29 0 01-.021-.123v-5.721a.324.324 0 01.021-.124.33.33 0 01.068-.105.311.311 0 01.228-.089h3.817a.315.315 0 01.295.187c.016.039.024.08.022.123 0 .04-.008.08-.025.116a.276.276 0 01-.07.096.307.307 0 01-.222.09h-3.499v2.244h2.546a.31.31 0 110 .619h-2.546v2.27h3.499a.308.308 0 01.222.09.27.27 0 01.07.094.271.271 0 01.025.116.287.287 0 01-.095.224.316.316 0 01-.222.085l-3.817.002z" fill="#3b3b3b"/></svg>