<svg width="518" height="383" viewBox="0 0 518 383" fill="none" xmlns="http://www.w3.org/2000/svg">
<path d="M9.67 339.498C-1.89 335.288 -1.89 328.398 9.67 324.188L116.84 285.188C128.4 280.978 147.32 280.978 158.84 285.188L266 324.188C277.57 328.398 277.57 335.288 266 339.498L158.88 378.498C147.32 382.708 128.4 382.708 116.88 378.498L9.67 339.498Z" fill="white" stroke="black" stroke-miterlimit="10" stroke-linecap="round"/>
<path d="M156.3 159.498V275.278C156.3 278.058 159.19 280.828 164.97 282.928L272.13 321.928C283.69 326.138 302.61 326.138 314.18 321.928L508.23 251.298C514.01 249.198 516.9 246.418 516.9 243.648V127.888L156.3 159.498Z" fill="white" stroke="black" stroke-miterlimit="10" stroke-linecap="round"/>
<path d="M156.3 269.428L173.38 275.638C177.9 277.288 181.6 274.698 181.6 269.888V249.578C181.477 247.044 180.64 244.598 179.185 242.52C177.731 240.443 175.718 238.82 173.38 237.838L163.17 234.118C160.174 232.969 157.721 230.734 156.3 227.858" stroke="black" stroke-miterlimit="10" stroke-linecap="round"/>
<path d="M293.15 325.088C300.78 325.088 308.4 324.088 314.15 321.938L508.2 251.308C513.98 249.208 516.87 246.428 516.87 243.658V137.578L308.47 213.578C300.03 216.658 293.12 226.528 293.12 235.508L293.15 325.088Z" fill="#EBE9E9"/>
<path d="M156.3 159.498V275.278C156.3 278.058 159.19 280.828 164.97 282.928L272.13 321.928C283.69 326.138 302.61 326.138 314.18 321.928L508.23 251.298C514.01 249.198 516.9 246.418 516.9 243.648V127.888L156.3 159.498Z" stroke="black" stroke-miterlimit="10" stroke-linecap="round"/>
<path d="M164.97 167.158C153.41 162.948 153.41 156.068 164.97 151.858L359.02 81.2276C370.58 77.0176 389.5 77.0176 401.02 81.2276L508.19 120.228C519.75 124.428 519.75 131.318 508.19 135.528L314.18 206.168C302.61 210.368 283.69 210.368 272.13 206.168L164.97 167.158Z" fill="white"/>
<path d="M309.72 174.728L452.73 122.678L383.03 107.018L293.73 158.868L309.72 174.728Z" fill="black" stroke="black" stroke-miterlimit="10"/>
<path d="M164.97 167.158C153.41 162.948 153.41 156.068 164.97 151.858L359.02 81.2276C370.58 77.0176 389.5 77.0176 401.02 81.2276L508.19 120.228C519.75 124.428 519.75 131.318 508.19 135.528L314.18 206.168C302.61 210.368 283.69 210.368 272.13 206.168L164.97 167.158Z" stroke="black" stroke-miterlimit="10" stroke-linecap="round"/>
<path d="M459.18 116.987V25.8075H344.68V116.987C344.68 119.047 346.83 121.107 351.13 122.677L386.29 135.497C394.89 138.627 408.97 138.627 417.57 135.497L452.73 122.698C457.03 121.108 459.18 119.047 459.18 116.987Z" fill="white" stroke="black" stroke-miterlimit="10" stroke-linecap="round"/>
<path d="M403.12 137.797C408.028 137.795 412.904 137.019 417.57 135.497L452.73 122.698C457.03 121.128 459.18 119.068 459.18 117.008V25.8075L403.12 46.5975V137.797Z" fill="#B8A9A9"/>
<path d="M459.18 116.987V25.8075H344.68V116.987C344.68 119.047 346.83 121.107 351.13 122.677L386.29 135.497C394.89 138.627 408.97 138.627 417.57 135.497L452.73 122.698C457.03 121.108 459.18 119.047 459.18 116.987Z" stroke="black" stroke-miterlimit="10" stroke-linecap="round"/>
<path d="M351.13 31.4975C342.53 28.3575 342.53 23.2375 351.13 20.1075L386.29 7.30746C394.89 4.17746 408.97 4.17746 417.57 7.30746L452.73 20.1075C461.33 23.2375 461.33 28.3575 452.73 31.4975L417.57 44.2975C408.97 47.4275 394.89 47.4275 386.29 44.2975L351.13 31.4975Z" fill="white" stroke="black" stroke-miterlimit="10" stroke-linecap="round"/>
<path d="M387.68 143.008V21.8375H273.18V143.008C273.18 145.078 275.33 147.138 279.63 148.708L314.79 161.498C323.39 164.628 337.47 164.628 346.07 161.498L381.23 148.708C385.53 147.138 387.68 145.078 387.68 143.008Z" fill="white" stroke="black" stroke-miterlimit="10" stroke-linecap="round"/>
<path d="M331.62 163.828C336.53 163.82 341.407 163.034 346.07 161.498L381.23 148.708C385.53 147.138 387.68 145.078 387.68 143.008V21.8375L331.62 42.6175V163.828Z" fill="#B8A9A9"/>
<path d="M387.68 143.008V21.8375H273.18V143.008C273.18 145.078 275.33 147.138 279.63 148.708L314.79 161.498C323.39 164.628 337.47 164.628 346.07 161.498L381.23 148.708C385.53 147.138 387.68 145.078 387.68 143.008Z" stroke="black" stroke-miterlimit="10" stroke-linecap="round"/>
<path d="M279.63 27.4975C271.03 24.3675 271.03 19.2475 279.63 16.1075L314.79 3.3475C323.39 0.2175 337.47 0.2175 346.07 3.3475L381.23 16.1375C389.83 19.2775 389.83 24.3975 381.23 27.5275L346.07 40.3275C337.47 43.4575 323.39 43.4575 314.79 40.3275L279.63 27.4975Z" fill="white" stroke="black" stroke-miterlimit="10" stroke-linecap="round"/>
<path d="M316.18 169.038V127.858H201.68V169.038C201.68 171.098 203.83 173.158 208.13 174.728L243.28 187.498C251.89 190.628 265.96 190.628 274.57 187.498L309.72 174.698C314.02 173.158 316.18 171.098 316.18 169.038Z" fill="white" stroke="black" stroke-miterlimit="10" stroke-linecap="round"/>
<path d="M260.12 189.848C265.03 189.828 269.907 189.035 274.57 187.498L309.72 174.698C314.02 173.128 316.18 171.068 316.18 169.008V127.858L260.12 148.648V189.848Z" fill="#B8A9A9"/>
<path d="M316.18 169.038V127.858H201.68V169.038C201.68 171.098 203.83 173.158 208.13 174.728L243.28 187.498C251.89 190.628 265.96 190.628 274.57 187.498L309.72 174.698C314.02 173.158 316.18 171.098 316.18 169.038Z" stroke="black" stroke-miterlimit="10" stroke-linecap="round"/>
<path d="M208.13 133.558C199.53 130.418 199.53 125.298 208.13 122.168L243.28 109.368C251.89 106.238 265.96 106.238 274.57 109.368L309.72 122.168C318.33 125.298 318.33 130.418 309.72 133.558L274.57 146.348C265.96 149.478 251.89 149.478 243.28 146.348L208.13 133.558Z" fill="white" stroke="black" stroke-miterlimit="10" stroke-linecap="round"/>
<path d="M139.29 295.627C138.125 295.628 137.006 295.178 136.167 294.37C135.327 293.563 134.834 292.461 134.79 291.297C134.79 290.057 133.98 260.707 159.95 250.687C161.064 250.258 162.303 250.288 163.394 250.772C164.486 251.256 165.34 252.154 165.77 253.267C166.2 254.381 166.169 255.62 165.685 256.712C165.201 257.803 164.304 258.658 163.19 259.087C154.93 262.277 149.19 268.487 146.06 277.547C144.582 281.875 143.815 286.414 143.79 290.987C143.825 292.179 143.387 293.335 142.572 294.205C141.757 295.074 140.631 295.586 139.44 295.627H139.29Z" fill="black"/>
<path d="M165.636 260.768C168.177 259.956 169.273 256.279 168.083 252.554C166.894 248.829 163.87 246.467 161.329 247.279C158.788 248.09 157.692 251.768 158.881 255.493C160.071 259.218 163.095 261.579 165.636 260.768Z" fill="black"/>
<path d="M149.46 265.977C148.885 265.969 148.324 265.795 147.845 265.476C147.366 265.158 146.989 264.708 146.758 264.181C146.527 263.654 146.453 263.072 146.543 262.504C146.634 261.936 146.887 261.406 147.27 260.977C150.943 257.056 155.465 254.029 160.49 252.127C160.858 251.986 161.25 251.918 161.644 251.927C162.038 251.937 162.426 252.024 162.786 252.184C163.147 252.344 163.472 252.573 163.744 252.858C164.015 253.144 164.228 253.48 164.37 253.847C164.512 254.215 164.58 254.607 164.57 255.001C164.561 255.395 164.473 255.783 164.314 256.144C164.154 256.504 163.925 256.829 163.639 257.101C163.354 257.373 163.018 257.586 162.65 257.727C158.474 259.307 154.712 261.817 151.65 265.067C151.366 265.36 151.025 265.592 150.649 265.748C150.272 265.904 149.868 265.983 149.46 265.977V265.977Z" fill="#5FFC3F"/>
<path d="M139.28 297.397C143.649 297.397 147.19 295.996 147.19 294.267C147.19 292.539 143.649 291.137 139.28 291.137C134.912 291.137 131.37 292.539 131.37 294.267C131.37 295.996 134.912 297.397 139.28 297.397Z" fill="black"/>
<path d="M94.3301 345.497C79.9101 340.257 79.9101 331.668 94.3301 326.418L131.79 312.818C146.21 307.568 169.79 307.568 184.23 312.818C198.67 318.068 198.65 326.657 184.23 331.907L146.79 345.497C132.35 350.787 108.79 350.787 94.3301 345.497Z" fill="black"/>
<path d="M178.71 319.497C166.29 314.977 145.98 314.977 133.56 319.497L100.24 331.617C90.9801 334.987 88.6301 339.617 93.1801 343.817C94.3701 344.447 96.1801 345.967 97.7001 346.477C110.25 350.477 133.58 350.417 146.95 345.547L181.68 332.907C183.63 332.226 185.498 331.331 187.25 330.237C189.53 326.497 186.68 322.387 178.71 319.497Z" fill="#EBE9E9"/>
<path d="M94.3301 345.497C79.9101 340.257 79.9101 331.668 94.3301 326.418L131.79 312.818C146.21 307.568 169.79 307.568 184.23 312.818C198.67 318.068 198.65 326.657 184.23 331.907L146.79 345.497C132.35 350.787 108.79 350.787 94.3301 345.497Z" stroke="black" stroke-miterlimit="10" stroke-linecap="round"/>
<path d="M189.79 315.417C183.3 311.497 171.5 308.867 158.01 308.867C144.52 308.867 132.71 311.497 126.22 315.417H120.94V325.417C120.94 332.867 137.53 338.907 158.01 338.907C178.49 338.907 195.07 329.767 195.07 322.317V315.377L189.79 315.417Z" fill="white"/>
<path d="M157.99 308.867V338.947C160.689 338.944 163.386 338.801 166.07 338.517L185 331.627C189.21 330.097 195 326.417 195 322.357V315.417H189.79C183.28 311.497 171.48 308.867 157.99 308.867Z" fill="black"/>
<path d="M154.53 328.847V338.517" stroke="black" stroke-miterlimit="10" stroke-linecap="round"/>
<path d="M189.79 315.417C183.3 311.497 171.5 308.867 158.01 308.867C144.52 308.867 132.71 311.497 126.22 315.417H120.94V325.417C120.94 332.867 137.53 338.907 158.01 338.907C159.27 338.907 163.6 338.727 166.09 338.477L185.02 331.587C191.8 328.587 195.02 325.857 195.02 322.317V315.377L189.79 315.417Z" stroke="black" stroke-miterlimit="10" stroke-linecap="round"/>
<path d="M157.99 328.907C178.463 328.907 195.06 322.868 195.06 315.418C195.06 307.967 178.463 301.927 157.99 301.927C137.517 301.927 120.92 307.967 120.92 315.418C120.92 322.868 137.517 328.907 157.99 328.907Z" fill="white" stroke="black" stroke-miterlimit="10" stroke-linecap="round"/>
<path d="M345.53 235.298C343.413 236.189 341.59 237.661 340.274 239.544C338.958 241.426 338.2 243.643 338.09 245.938V271.498C338.09 275.858 341.44 278.208 345.53 276.718L366.67 269.018C368.789 268.13 370.613 266.661 371.932 264.78C373.25 262.899 374.009 260.682 374.12 258.388V232.818C374.12 228.458 370.77 226.118 366.67 227.608L345.53 235.298Z" fill="#111111"/>
<path d="M357.18 260.308V262.838L354.8 263.758V261.288C354.332 261.433 353.834 261.455 353.355 261.35C352.877 261.244 352.434 261.016 352.07 260.688C351.319 259.799 350.933 258.659 350.99 257.498L353.64 256.498C353.74 257.358 353.96 257.898 354.32 258.128C354.58 258.238 354.862 258.287 355.144 258.274C355.426 258.26 355.702 258.182 355.95 258.048C356.554 257.861 357.079 257.479 357.441 256.961C357.803 256.443 357.982 255.819 357.95 255.188C357.977 254.957 357.957 254.724 357.89 254.502C357.823 254.28 357.71 254.074 357.56 253.898C357.375 253.775 357.165 253.695 356.946 253.662C356.727 253.629 356.503 253.645 356.29 253.708L355.15 253.898C354.669 254.04 354.163 254.075 353.667 254.001C353.171 253.927 352.698 253.745 352.28 253.468C351.929 253.098 351.662 252.655 351.5 252.172C351.338 251.688 351.283 251.175 351.34 250.668C351.327 249.397 351.648 248.145 352.27 247.038C352.867 245.954 353.735 245.044 354.79 244.398V242.268L357.17 241.348V243.498C357.593 243.411 358.031 243.43 358.444 243.554C358.858 243.678 359.234 243.902 359.54 244.208C360.201 245.009 360.555 246.019 360.54 247.058L357.79 248.118C357.802 247.848 357.76 247.579 357.665 247.326C357.571 247.074 357.426 246.843 357.24 246.648C357.027 246.529 356.788 246.467 356.545 246.467C356.302 246.467 356.062 246.529 355.85 246.648C355.319 246.834 354.86 247.184 354.54 247.648C354.226 248.147 354.066 248.728 354.08 249.318C354.052 249.534 354.077 249.754 354.152 249.96C354.227 250.165 354.349 250.349 354.51 250.498C354.956 250.722 355.469 250.772 355.95 250.638L357.26 250.428C357.704 250.301 358.172 250.283 358.625 250.375C359.077 250.467 359.501 250.667 359.86 250.958C360.187 251.347 360.431 251.798 360.579 252.285C360.727 252.771 360.775 253.282 360.72 253.788C360.748 255.115 360.423 256.426 359.78 257.588C359.164 258.705 358.268 259.642 357.18 260.308V260.308Z" fill="white"/>
<path d="M417.52 209.097C415.401 209.987 413.576 211.459 412.258 213.342C410.94 215.224 410.181 217.442 410.07 219.737V245.317C410.07 249.677 413.42 252.027 417.52 250.537L438.65 242.837C440.769 241.95 442.593 240.481 443.912 238.6C445.23 236.718 445.989 234.502 446.1 232.207V206.617C446.1 202.257 442.75 199.917 438.65 201.407L417.52 209.097Z" fill="#111111"/>
<path d="M418.02 228.297V224.497C417.979 223.397 418.253 222.308 418.81 221.357C419.362 220.505 420.176 219.856 421.13 219.507C422.2 219.097 422.98 219.107 423.48 219.507C423.773 219.86 423.991 220.27 424.12 220.71C424.249 221.15 424.286 221.612 424.23 222.067V225.877C424.273 227.021 424.015 228.156 423.48 229.167C422.945 230.06 422.113 230.736 421.13 231.077C420.06 231.497 419.27 231.467 418.77 230.987C418.182 230.221 417.913 229.257 418.02 228.297V228.297ZM421.85 226.687V223.357C421.878 222.903 421.834 222.448 421.72 222.007C421.64 221.787 421.44 221.737 421.13 221.857C420.991 221.908 420.865 221.99 420.761 222.095C420.658 222.201 420.579 222.328 420.53 222.467C420.422 222.943 420.379 223.431 420.4 223.917V227.247C420.376 227.691 420.417 228.136 420.52 228.567C420.61 228.787 420.81 228.827 421.13 228.707C421.27 228.667 421.398 228.593 421.502 228.492C421.607 228.391 421.685 228.266 421.73 228.127C421.831 227.654 421.871 227.171 421.85 226.687V226.687ZM433.12 214.897L424.21 236.997L421.94 237.877L430.83 215.777L433.12 214.897ZM430.79 230.607V226.797C430.748 225.697 431.022 224.607 431.58 223.657C432.129 222.803 432.945 222.153 433.9 221.807C434.97 221.397 435.75 221.407 436.25 221.807C436.544 222.16 436.763 222.569 436.892 223.009C437.021 223.45 437.058 223.912 437 224.367V228.177C437.043 229.321 436.785 230.456 436.25 231.467C435.715 232.36 434.883 233.036 433.9 233.377C432.83 233.787 432.04 233.757 431.54 233.287C430.955 232.524 430.686 231.564 430.79 230.607ZM434.62 228.997V225.667C434.648 225.213 434.604 224.758 434.49 224.317C434.41 224.097 434.21 224.047 433.9 224.167C433.761 224.218 433.635 224.3 433.531 224.405C433.428 224.511 433.349 224.638 433.3 224.777C433.192 225.253 433.148 225.741 433.17 226.227V229.557C433.146 230.001 433.187 230.446 433.29 230.877C433.38 231.097 433.58 231.137 433.9 231.017C434.04 230.977 434.168 230.903 434.272 230.802C434.377 230.701 434.455 230.576 434.5 230.437C434.606 229.965 434.653 229.481 434.64 228.997H434.62Z" fill="white"/>
</svg>
